<mxfile host="app.diagrams.net" agent="Mozilla/5.0 (Macintosh; Intel Mac OS X 10_15_7) AppleWebKit/537.36 (KHTML, like Gecko) Chrome/131.0.0.0 Safari/537.36" version="26.0.10">
  <diagram name="第 1 页" id="rDAhorvOJG-MkOTuWVUT">
    <mxGraphModel dx="443" dy="720" grid="1" gridSize="10" guides="1" tooltips="1" connect="1" arrows="1" fold="1" page="1" pageScale="1" pageWidth="1169" pageHeight="827" math="0" shadow="0">
      <root>
        <mxCell id="0" />
        <mxCell id="1" parent="0" />
        <mxCell id="N9MAQbqoCcr-xqfqYe0r-1" value="" style="rounded=1;whiteSpace=wrap;html=1;strokeWidth=2;strokeColor=#2F528F;" vertex="1" parent="1">
          <mxGeometry x="90" y="90" width="300" height="370" as="geometry" />
        </mxCell>
        <mxCell id="N9MAQbqoCcr-xqfqYe0r-2" value="" style="rounded=1;whiteSpace=wrap;html=1;fillColor=#E7E6E6;fontColor=#333333;strokeColor=#2F528F;strokeWidth=2;" vertex="1" parent="1">
          <mxGeometry x="510" y="80" width="300" height="370" as="geometry" />
        </mxCell>
        <mxCell id="N9MAQbqoCcr-xqfqYe0r-4" value="&lt;font&gt;&lt;span&gt;&lt;font style=&quot;color: rgb(255, 0, 0);&quot;&gt;步骤一&lt;/font&gt;&lt;/span&gt;&lt;font style=&quot;color: rgb(255, 0, 0);&quot;&gt;：&lt;/font&gt;&lt;/font&gt;&lt;span&gt;数据&lt;/span&gt;" style="rounded=0;whiteSpace=wrap;html=1;dashed=1;fillColor=light-dark(#ffd57f, #ededed);strokeColor=#4472C4;strokeWidth=2;fontStyle=1;fontSize=16;" vertex="1" parent="1">
          <mxGeometry x="160" y="260" width="120" height="60" as="geometry" />
        </mxCell>
        <mxCell id="N9MAQbqoCcr-xqfqYe0r-5" value="分层防御框架（HNTMTD）" style="text;html=1;align=center;verticalAlign=middle;whiteSpace=wrap;rounded=0;" vertex="1" parent="1">
          <mxGeometry x="50" y="20" width="60" height="30" as="geometry" />
        </mxCell>
        <mxCell id="N9MAQbqoCcr-xqfqYe0r-6" value="" style="verticalLabelPosition=bottom;sketch=0;aspect=fixed;html=1;verticalAlign=top;strokeColor=none;align=center;outlineConnect=0;shape=mxgraph.citrix.users;fillColor=light-dark(#d81e07, #ff9090);" vertex="1" parent="1">
          <mxGeometry x="280" y="560" width="64.5" height="55" as="geometry" />
        </mxCell>
        <mxCell id="N9MAQbqoCcr-xqfqYe0r-10" value="" style="shape=image;verticalLabelPosition=bottom;labelBackgroundColor=default;verticalAlign=top;aspect=fixed;imageAspect=0;editableCssRules=.*;image=data:image/svg+xml,PHN2ZyB4bWxuczp4bGluaz0iaHR0cDovL3d3dy53My5vcmcvMTk5OS94bGluayIgeG1sbnM9Imh0dHA6Ly93d3cudzMub3JnLzIwMDAvc3ZnIiBjbGFzcz0ic3QyIiBjb2xvci1pbnRlcnBvbGF0aW9uLWZpbHRlcnM9InNSR0IiIHhtbDpzcGFjZT0icHJlc2VydmUiIHZpZXdCb3g9IjAgMCA0Ny40MTM0IDYwLjAyNzYiIGhlaWdodD0iMC44MzM3MTZpbiIgd2lkdGg9IjAuNjU4NTE5aW4iPiYjeGE7CSYjeGE7JiN4YTsJPHN0eWxlIHR5cGU9InRleHQvY3NzIj4uc3QxIHsgZmlsbDogbGlnaHQtZGFyayhyZ2IoMjU1LCAwLCAwKSwgcmdiKDI1NSwgMTQ0LCAxNDQpKTsgc3Ryb2tlOiBsaWdodC1kYXJrKHJnYigyNTUsIDAsIDApLCByZ2IoMjU1LCAxNDQsIDE0NCkpOyBzdHJva2Utd2lkdGg6IDAuMjU7IH0gLnN0MiB7IGZpbGw6IGxpZ2h0LWRhcmsocmdiKDI1NSwgMCwgMCksIHJnYigyNTUsIDE0NCwgMTQ0KSk7IGZpbGwtcnVsZTogZXZlbm9kZDsgZm9udC1zaXplOiAxMnB4OyBvdmVyZmxvdzogdmlzaWJsZTsgc3Ryb2tlLWxpbmVjYXA6IHNxdWFyZTsgc3Ryb2tlLW1pdGVybGltaXQ6IDM7IH0gPC9zdHlsZT4mI3hhOyYjeGE7CTxnPiYjeGE7CQk8dGl0bGU+6aG1LTE8L3RpdGxlPiYjeGE7CQkmI3hhOwkJPGcgdHJhbnNmb3JtPSJ0cmFuc2xhdGUoMC4yNSwtMC4yNSkiIGlkPSJzaGFwZTEtMSI+JiN4YTsJCQk8dGl0bGU+5bel5L2c6KGoLjE8L3RpdGxlPiYjeGE7CQkJPHJlY3QgY2xhc3M9InN0MSIgaGVpZ2h0PSI1OS41Mjc2IiB3aWR0aD0iNDYuOTEzNCIgeT0iMC41MDAwMDIiIHg9IjAiLz4mI3hhOwkJCTxzd2l0Y2g+JiN4YTsJCQkJPGZvcmVpZ25PYmplY3QgaGVpZ2h0PSI1OS41Mjc2IiB3aWR0aD0iNDYuOTEzNCIgeT0iMC41MDAwMDIiIHg9IjAiPiYjeGE7CQkJCQkmI3hhOwkJCQkmI3hhOwkJCQkmI3hhOwkJCQk8c3ZnIHk9IjAuNTAwMDAyIiB4PSIwIiB3aWR0aD0iNDYuOTEzNCIgcHJlc2VydmVBc3BlY3RSYXRpbz0ibm9uZSIgaGVpZ2h0PSI1OS41Mjc2IiB2aWV3Qm94PSItMC43MDg3MSAtMC43MDg2OSAzOTAuOTcgNDk2LjA4Ij4mI3hhOwkJCQkJPGNsaXBQYXRoIGlkPSJtZmlkMTEiPiYjeGE7CQkJCQkJPHJlY3QgaWQ9Im1maWQxMiIgaGVpZ2h0PSI0OTYuMDgiIHdpZHRoPSIzOTAuOTciIHk9Ii0wLjcwODY5IiB4PSItMC43MDg3MSIvPiYjeGE7CQkJCQk8L2NsaXBQYXRoPiYjeGE7CQkJCQk8ZyBjbGlwLXBhdGg9InVybCgjbWZpZDExKSI+JiN4YTsJCQkJCQk8bWFzayBpZD0ibWZpZDEzIj4mI3hhOwkJCQkJCQk8cmVjdCBzdHJva2U9Im5vbmUiIGZpbGw9IndoaXRlIiBoZWlnaHQ9IjQ5NiIgd2lkdGg9IjM5MSIvPiYjeGE7CQkJCQkJPC9tYXNrPiYjeGE7CQkJCQkJPG1hc2sgc3Ryb2tlPSJub25lIiBmaWxsPSJ3aGl0ZSIgaWQ9Im1maWQxNCI+JiN4YTsJCQkJCQkJPGc+JiN4YTsJCQkJCQkJCTxnIG1hc2s9InVybCgjbWZpZDEzKSI+JiN4YTsJCQkJCQkJCQk8dXNlIHhsaW5rOmhyZWY9IiNtZmlkMTIiLz4mI3hhOwkJCQkJCQkJPC9nPiYjeGE7CQkJCQkJCTwvZz4mI3hhOwkJCQkJCTwvbWFzaz4mI3hhOwkJCQkJCTxkZWZzPiYjeGE7CQkJCQkJCTxwYXRoIGQ9Ik0wLDAgTDU5NTg4MCwwIEw1OTU4ODAsNzU1OTAwIEwwLDc1NTkwMCBaIiBpZD0ibWZpZDE1Ii8+JiN4YTsJCQkJCQk8L2RlZnM+JiN4YTsJCQkJCQk8bWFzayBpZD0ibWZpZDE2Ij4mI3hhOwkJCQkJCQk8dXNlIHRyYW5zZm9ybT0ibWF0cml4KDAuMDAwNjU2MTcsIDAsIDAsIDAuMDAwNjU2MTcsIDAsIDApIiBzdHJva2U9Im5vbmUiIGZpbGw9IndoaXRlIiBmaWxsLXJ1bGU9ImV2ZW5vZGQiIHhsaW5rOmhyZWY9IiNtZmlkMTUiLz4mI3hhOwkJCQkJCTwvbWFzaz4mI3hhOwkJCQkJCTxtYXNrIHN0cm9rZT0ibm9uZSIgZmlsbD0id2hpdGUiIGlkPSJtZmlkMTciPiYjeGE7CQkJCQkJCTxnIG1hc2s9InVybCgjbWZpZDE0KSI+JiN4YTsJCQkJCQkJCTxnIG1hc2s9InVybCgjbWZpZDE2KSI+JiN4YTsJCQkJCQkJCQk8dXNlIHhsaW5rOmhyZWY9IiNtZmlkMTIiLz4mI3hhOwkJCQkJCQkJPC9nPiYjeGE7CQkJCQkJCTwvZz4mI3hhOwkJCQkJCTwvbWFzaz4mI3hhOwkJCQkJCTxkZWZzPiYjeGE7CQkJCQkJCTxpbWFnZSB4bGluazpocmVmPSJkYXRhOmltYWdlL3BuZztiYXNlNjQsaVZCT1J3MEtHZ29BQUFBTlNVaEVVZ0FBQVljQUFBSHdDQVlBQUFCTk9hTUhBQUFBQVhOU1IwSUFyczRjNlFBQUFBUm5RVTFCQUFDeGp3djhZUVVBQUFBSmNFaFpjd0FBSFljQUFCMkhBWS9sOFdVQUFLeURTVVJCVkhoZTdmMWJrR1ZYZmUvNXVzL1Q5bm15KzhtZ0xCVzJ1eVB3dy9FbDdJNkFpSTR3am1pb3pLSnRNT0VHSExBRHNXTjdBOTZXalhHRUpXK3pRY1o0Zyt5TnNBR3JNa3VnUWdZaFpLRUx5RUt5UUJRSWlVS2dDMElJSVc0Q0JNajRuRzY2KzJXL2RaNzVtN1grUy8vMVg5OXhtWE90bGJreWM0eUlUNEFLbExubUdQLy9iOVJhODdKK29vMDIybWlqalRiYWFLT05OdHBvbzQwMjJtaWpqVGJhYUtPTk50cG9vNDAyMmxqZU9QNkNuV2RmY09MVTgrVFk1czZseDdaMkxwdTFmVjMzbjJlVE5uZHU3LzR6L0R2bjZXYys4K1RwWDU3OHFqYmFhS09OTnRacEtLUTNUbTV2S3JBM3RuYmUyZjNuMmU0L24raitjM2V2VEg2ZmZxOStmOXM0Mm1pampUYjJja3pmQVhSL285L1kydjV2UHFEWDFmbU5RKzlRdGwrcmR6S1RRMm1qalRiYWFHUE1PUDdyWi82TjNoRjBtOERidXBEVnh6d1l2Z2ZOeHViMmo0OXRidC9jZWYwRm02ZWZNem5jTnRwb280MDJVbU5qYytmbC9VY3ptOXNQVWJBZVJ2MDdJSjNiNk40UnRYY1diYlRSUmh1VE1YbDNjS2IvR3pXRTUxSFR6Y1ZqM1g5ZTFqYUtOdHBvNDhpTi9pVHk1czZwemxNeEhKdW50WTJpalRiYU9QUkRWKy9vSTZQSmxUMFloc3YyNi8vK3c3c25MNzV4OTVKMzNUM24ydHNmcTNiNnBvZG4vdDAzWEhHMi83blBlZFcxK0h0WG9XMFViYlRSeHFFWk9xbDg3TVRwaTFhNUlTaWtYL3lHVy9yUWZ2dVorL293LytSOTM5MTk1QnYvM3ozejhYdSszZi9lTjUyNmQyODJqczN0aDNSK1pqTE5iYlRSUmhzSFl4eC8wWm1mMGduV1pYOXM5R3V2L01EdXF5KzdvOThFRk1nVTFONVh2cmw2OUh2TjV4LzU0ZTZaajMybDM3aTBZZEF4TGFMZmREZTNYNi81bmt4OUcyMjAwY2I2amVNblRqM3IvRWRIeTdrSFFYLzcxbVp3eFFmdno3NGJvTkRlYi9RNjVZWlBQTDc3bHRQbmRsOTZ5YTI3di9peWEvQzRoOUxKL0c3TzMzYjg1SHQrWnJJVWJiVFJSaHY3UDNRK1lmSW9DZ3l2SVY3NXh0dDIzM1A5UTd0M1AvZ2toaXNGOFVGQng2Tk5UNXVGem8vUWZBelZiUkpuMnQzWmJiVFJ4cjZPeVdNckZyNUJUZWNNOU81QUg4UEU4S1NRUFF6aWNjcFNONHJObmR2YlRYWnR0TkhHbmc1ZE1kUGZ1RVdoVk9uNXI3dWhQM2RBN3hBb1RBKzdPQWZMMnlpMnIyc2ZON1hSUmhzckhUcnhxWE1LSEVKbE9xR3N3S1B6QnhTWUsvV3QvMTg5K3ZkWEtNNk41a3NudGNlZW81aWNBN3BNVjQ5TmxyS05OdHBvWXpsRFY4V012WXRaN3hKMHIwQU1QUXJHcGFDQVh6VjZIVXZnNSt2K3IvNUwvL0hiMk10a2RmVll1d1MyalRiYVdNcVlQTjVDTjJCaDRPVG9paHhkLys4RFRpZ0VSNkdRWGlmMG1rZUtjNmhMWk1kZkhydDlycDJQYUtPTk5rYU5zZWNWZnU0M3Irb3ZQNDMzSVZEZ0RVWUJmSkRRTVEzazUxUnVPZnVOZnI1cExjcmErWWcyMm1oandPaHZZQnQ0cjhLelgzSjFmM2R3UE1GTUFUY0loZXhoUWNkYnljK3hhTjR2dnZ5dWZuT205VW5wNzVGb0h6VzEwVVlidWFHL1JYYUJNZmpTVklYU3VTL1BYb1pLZ1ZhTmduUUpIbDBDK3JsTFFmTlF5Yys3VGw3cjR6eGFweHpkSDlGT1dMZlJSaHR6WTJOcjU4VkRUempyL29TbGZYeEVnVGtDQmZwZW9kY3pDczFQQmI4T090Y3o5REpZblZ0cTV5TGFhS09OZnZUZnVOYjlyWkhDSWtXWHBPcUVxQThqQ3FzaUNzWUJLS0NIK09xMy8vY2krdmVHb05kZGplYXN3SytKNkY2U0laZkE5aDhuYnU1Y09pbVBOdHBvNHlnTy9TMVJmMXVra0NBNnI2QW5qK3FTU2g5QUZGSlpGSVFWS0h4VEtPaFhoWDUvQ2gxWEZackhETDgrK3NoUDU0TUduWS9ZM0xtOW5heHVvNDBqT0lhZWRIN05XKzljL0dRemhWNEJCYXhIWWIwTzZMVkdkTHhGTks4WmZyMTBQa0lmQmRMNkV0MFhjY0hXenRha1pOcG9vNDNEUFBySGFRODQ2YXlQa1BRa1VSOHlGRUpaRkhJWkZLUWVoZkc2bytQd2FCNnlhSjRUL05xSmJxVFR1MEJhYjZLNzRpZmwwMFliYlJ6R2NmNlIydlVmSStuNitZV3VRcUpRUzZEQU5CUzJOUjU3WXJYb2Q5YWk0elEwUDBrMDd3bCtIWFVoZ2U1Y3AzVkhtOXMzYi96T08zNXlVa3B0dE5IR1lSbjkxM1JXZnZtTy9sYXB2MTM2TUtHd1NhSVFTNkJ3RkFyVUhBcnYvVUt2TDRlT1gyaStrbWdkZ0Y5VDBUT2JxQWJZOXJrTFgzamxUMDlLcW8wMjJqam9vMzhFUnVWbHF2cmI1T2pMVXltMEVpZ01LVGhUS0pUWEZiMStRbk1pTkgrSTFpVEJyNjgrTnF4OVhwUGVlVjc0L05NL095bXROdHBvNDZDTzg5L2hYSGZpV1ZlMGpMNFNpY0lLVVBoUlVFWVV1Z2NWSFY5RTgwVHppV2g5Z0Y5bmZYeFkreGdPdlFNOXZubmxyMHhLckkwMjJqaG9vMnZreTJKakUxMEhQL3ErQlFxbmdJSk9LQlE5Q3RiRGhvN2JvM21qT1VhMFhvRmZjOUhUYzJ0T1Z1c3ZITzFLcGpiYU9JQ2phOTZxRzl0MEYrMm9rODRVUm9EQ2pVTFFVSUNPOWJYdnJCYjl6ckZvTGp5YVI1cnZPYlIyd0srL0h1YW5xOVNvWHFLdXpsNDlLYmsyMm1oam5ZZnVlSzU5bXFxdWVSLzFNUktGVUVCaFJxRm5LRENIb1BEZUwvVDZocUQ1TVRTdk5QOXphQjBEWHdlNnAyWEE0emN1bTVSZkcyMjBzWTVqeU1hZ3o1ZDlHQWdGeGh3S0hvZkNpMExPVURqV29GQmVWL1Q2YTlCOG1Uakh0Qlp6YUQwRFh3OTZSem5ncHJtMlFiVFJ4cnFPMm8xQmx5LzZFS0NRbUVOaEU4VEFvbEF6RklZbEZMd0hEUjFYQ2MyZmlYTk82ektEMWpid3RTRUR2aStpYlJCdHRMRnVvL1ljdzZqN0Z5aGtuQmhRRkdLR3dpK0hBdmF3b09QTm9mbVVPUDlDNnpTRDF0bnhOU0o2cGhiVlU5VE9RYlRSeGhxTmpjMmRVOVNvbmg2Nk51cUtKQW9XSjRZU2haZFEyS1ZRa0M3RDQ5LzVQeFpHUDNjWmFCNVNhSDRscmdXdDF3eGE3OERYaS81aVVmUHd2clpCdE5IR0dveXVHWXVYcStyU1JGMkI0aHVkZ21BT0JjcEVEQ0lLSzZGd1M2SFFISW9DZlMvUWF4bUQ1aVdGNWx2OHV0RGF6YUIxRDN6ZDZDOFlwUTJpMnh6YVphNXR0TEdmNDlqbTl1dXBPVDF0RElQdmVLWVFjWHo0Q0FXVVVLQVJDc2xhRk5UcmdGN3JFRFJQaE9aZDRoclJPazVSRFFTK2Z0b0cwVVliYXp4MDV6TTFwVGZxSFFPRmh4TkRoNEtKUW94UUtOYWdNRjUzZEJ3MWFONElyVU5jSzFyUEthcUZ3TmVSYnBham12UDB5SloySjNVYmJlemgwTE9TcUJrOS9jMXU4S08yS1RRbVl0QlFHRkZvRVFyQkVncmNnNHFPcjRUbU1hSTFFYjl1dExZenFDNGNYMDg2QjBHMTU3VU5vbzAyOW1qMGo5MHVQRVJ2MU1sbkNvb0pIeTVDQVVSaEZWSG81VkN3anZIMTd5NFgvWTR4NkpoTGFGNGpXcCs0aHJUT1UxUWZqcStydDV3K2h6WG9iV3p0UE5HZTV0cEdHeXNjL1UxdVc5dm5xQUc5Zzc0eFVKRFdvakRmSy9SNmF0RThwTkQ4UnJST2NTMXB2YWVvVGlaOGJVblZZNzgzdDIvK2laL1kvZThtcGR4R0cyMHNjOVRjeXpENFBnWUtoZ2tmSkJRMkZFb1JoVnNLaFdZSmhmUzZvTmRiUXZPU1F2UHQwWnI1TlJWYTl5bXFsd2xmWTZLdmthVjZuTEc1ODhlVFVtNmpqVGFXTldwT1FLL1R4a0JobGtJaG1VTkJ2TzdvT0hKb25nak5mUlRYenErdDBQcFBVZDFNK0ZxVDBwM1V1b0xwbVNlMm56c3A2VGJhYUdQUmNjSG02ZWVvc2FqaHpNV1gzelhYck5UUVV4UUVFejQ0WXJBSUJaQkhJVVlvRkZNb2NNZjR4dmQrUEFyOXJMSG8rRkpvM2dpdGcwZnI2TmVaNm1DSzZtY2kxdHdMLy9BbXJFL1R6aiswMGNhU3h2RVhuZmtwTlJRMW10RzN0dzE2dWlvRndJUVBEQW9VQ2g2UGdpdWlFRXloY0sxQkFiOHE5UHRyMFBFU21rTkM2K0hSZXZyMXBucm9VUTA1dnU3ME5OZGZldGsxV0tkVDdmeERHMjBzUGtvUDA5TVg5WHp5dnUvT05DZzE4QlExLzRRUENnb1NDaHhEWVVVby9BaUZhUTZGOW42aDE1ZER4MDlvUGlOYUc0L1cxYTg3MVVXUGFzbng5WGZ0N1kvdC92eHZ2UmZyZGFxZGYyaWpqZkdqYTZCTHNiRWNOYUp2VEdyY0tXcjZDUjhRRkNBVU5JWkNLcUt3SXhTZUtSVE02NFplZHdyTkI2SDVqV2lkREsydlgzK3FqeDdWbE9QcnNIU0phenYvMEVZYkkwZC9QMFBoUE1QZ1IyOVR3M2Q4TUZCd1VNQVlDcWFJQWk2aXNDUVV3RU44Y3dIMDg0YWc0eUUwUHhITmMwVHJaV2lkZlIxUW5mU29yaVo4TGNwTEw3a1Y2OWEwOHc5dHRERmlkTTF6TmphVGQvTGlHK2Vha1JwMmlocTk0d01oaGdXRmlrZUI1RkdvUlJTT2hNSTJoOEo5VmVqMzU5RHhFWm92aitZOG9uVXpjYjNGMXdQVlM0L3FhOExYbzc0czZIOTY1UWV4Zm8wdXoyN25IOXBvbzNLVUxsdlZlUWFkK1BPTlNJMDZSUTNlOFVGQVFVR0JZaWlJUEFvemo4S1FVTGdTQ3UzOVFxK1AwUEZHTkhjUnpiOUg2MmZpbXZ1YUVLcWJIdFhaaEs5TFBjS2xkUDdoZ3BQYnZ6RXAvVGJhYUNNMWpwOTh6OCtVSG84eDZKbEoxTmdkSHdBeElJU0N4RkFBZVJSZ0hvV2dSMEZLS0ppTG5sd0EvYndDZXQwUnpVRkU4K2pST25pMGppYXV2YThOb2ZyQlduTjhmYjc5ekgxWXgxT2Iydzl0L000N2ZuTFNBbTIwMFFhTlkxdmIxMkVEVGVoT1ZOOTQxSmd6cUxFNzF2Z3hHSVFDUkNoMElnb3VRNkVYVVhoNkZNQ0l3bjBWNkhjRE9wYUk1c09qT2ZWb1BUeGFVeE5yb0xnNUNOWGJoSzlSK2Jkdi9Ealc4MVM3ZXFtTk50SmpZMnZueGRnNEUvbzRTWi9qK3FhanhweWlodTc0eG8raFFNRmhLSEE4Q2l4RFllZFJXSG9VdUhNb3ZQY2F2YTZBanMraitmRm9mZzJ0aTBmcmFtSXQrRHFoT3VwUjNVMzRPdFhIb0xtUGwzVHh4WVVudHA4eGFZVTIybWpEUm4rejIrYk9VOVE0UnMvUTl3MUhEVGxGamR6eERSL0RnQUxEVU5BWUNpbVBBczVRT0hvVXJqTW9vTmNGdlY2SGp0ZlFYSGswejRiV3lLUDFOYkVtZkwxUVBmV28vaVo4dlJhZjROcHVqbXVqamZuUnZXdDRKemJNaEM0TDlJMG0xSXc5YXVDT2IvUVlBaFFVaGdMR1VEZ1pDaldQUXRGUW1FNVJFSzg3T280Sk9uNUQ4MlpvemcydGxVZnJiR0p0K0xxaHVzSWFuSWcxKzd6ZnV4N3IyN1J2ajJ1akRUZjZrOUNaZXhyMGpXNkxYcDNrR3p3MlB3V0VvV0F4RkVxR3dzeFFDQm9LenlrSzNZRys5ZjMvY3pUNmVZUFJjWFZvTGd6Tm9hRzU5MmpkREsyM3hQcnd0VU8xMWFNNm5QQjFxNHNwcU1aTjF3ZVB0WlBUYmJReEdhV1QwTHJhd3pjWU5lQVVOVzdITjNoc2Znb0lvVUF4RkVTR1FzeFErQmtLelI2RmJBVUsrR1dqMzF1RmpyTkQ4MkpvUGcydGc5RGFlYlR1RW12RTF3L1ZWNC9xc2VOclZ5b2U3MzFaKzNpcGpTTS9ubm55OUM5RGMwenBvWHF4dWFnQmU5U3dIZC9Zc2VrcEdJU0N4RkFJR1FvdVE0RW5GSkk5Q3RVTUN1KzlScThyaTQ2N1EvTWtOSytHMWtOb0RUMWFmNG0xNHV1STZneHJjc0xYYituaGZPM2tkQnR0ZEVNbjRhaEJ6QzFudnpIVFdOUjRVOUN3dnFGanMxTWdDQVdJb2ZBeEZGaUdnazRvR0RGRUV5aWcxd0c5MWlTYWd3N05sOUQ4R2xvWG9iVTBWQU1tMWt4MmN4Q3F5d2xmeDZWN0gzUU9ycjE3YU9QSWp0SzdobVdlaEk1TlRrRmdLRUFNQlk5UVVBbUZtNkZBeFBBRUZNanJpbDQvZ3ZtZ2VST2FhMFBySTdTZWh1cEFZdDFZUFkzWklHSXR2K0QzYjhDNkY3MTdhT2NlMmppeTQ3QzhhNkNBRWdvMW9SREVzQVFVdmdjRkhRK0MrYUY1cERrM3RFNUM2MnFvSGlUV2pxOHJxanVzendsZno2cnZDMDl5N2ZmYWpYRnRITVZSZXRjUTc0UVdhclllTldqbk1HME1GTFlIRlIzZkhKZ25taytoK1JkYUw2SDFOVlFYRW1zb3V6a0kxV2tuMW5UdW0rTjAzMDk3OTlER2tSdTVkdzAvOTV0WDFWKzZTbzNac2VhTm13TTF2bEJRR0FvWW9VQVNDakNod01OZ2RDaGNGL1h0SHd4SFAyZFJkTHd6WUw1b1hvWFdnZGJNMERvTDFZYjRHaEpmWDFSL1dLc1R2cTUxWXlmMXdGUjc5OURHVVJxbGR3MkR2ZzhhR3RNM2JteHFhbnlob0JBS0ZxRXdFZ291bVFzNkNzT0FBblVvQ3ZwbG9kODNGQjMzREpnN21sOWFDNkcxRTFwclEvVWhzWmF5bTROUXZYWmliZWR1akd2dkh0bzRVcU1yK0ZQVUNMTE1kdzJ4bWFuaGhRTENVTEFJQlJHRmxzd0ZISVdnUXlFNkJBWDVxdEhyR0lMbVlVYVlRNXBuV2hPaDlSTmFiME4xSXI2ZXJNNlNHd1RWN0lTdjc5SzdoNDBUcDM1MzBqcHR0SEY0Ui84TXBjemQwSHY5cm9HQ3dWQ2dDQVdRVUdERlVNUGdjeWc0YTFCZzd4ZDZmVFZvUG1hRXVhVDVwblVSV2tlaGRSZXFGWWsxNWV1TjZoSHJ0aE5yUFB0WWpjM3RoOXBsclcwYyt0RVYrdXV4QVRycjlLNkJna1FvZUlTQ0tvWVpCdDRFaFdVTkN1ZDFRYSszaE9abVJwaFRtbmRhSDZIMUZGcC9vWG9SWDFkak53ZnhkVjU4OTdCNStyY25MZFJHRzRkejZHOUJWUHp5eWpmZU50TXdRazNWZzBiMGplb2JtQnBjS0JBTWhRZ0ZqbEJBeFJERG9KdWdrQ3loTUY1WDlQcExhSjZtd3R6Uy9OTTYwWm9LcmIraHV2RzFKYjd1cUM2eGZqdXgxck5mS2JxNWMzdDc5OURHb1IwWGJKNStEaGIreExXM1B6YlRMTlJRUFdyQURtME1RZzFPUVdBb1FJUUNoNElwaGhjRzNBUUZZdzZGNzBGQng1TkQ4elVWNXBqV2dkYUwxbFdvRG9ScVIzeDlqZDBjeE5kNzZaSGU3WkVhYlJ6YXNiRzFmWWFLWHA3enFtdG5Ha1dvbVhyUWdMNUJmZU5TWXdzRmdWQndDQVVOQlZJTUxReTJDUXJFRkFyYlJUenhnLytyR3YzN1k5R3g1ZEM4VFlXNWptdEJheWEwdmxRTGh1ckgxNWo0K3FQNnhEcnUrSHEvLzZ2L3N2c0xMN2thKzZQWExtdHQ0ekNPMG1PNTliY20zeWpVU0QxcXZBNXRERUtOVFFGZ0tEZ29ZQ1NHVVF3ckRMUUpDc0lVQ3RraEtQQVhSYjluQ0RyT0ZKcS9LVGZmY1QyRTFvM1dXS2dlaEdwSWZKMHRZM09RN0JOYjI0bnBOZzdqS0oySXJ2NzZUMmc4MzVpK1lhbWhoUUpBS0RDRUFvYUN5QWNWQnRrRUJXQUtCV3NOQ3ZSVm9kOWZnNDQzaGVheEYrYWQxb1hXajlaWnFDNkU2c2pYbW1RM0I2RjY3dmk2MTBlcjFDUG0rTW1yZm1IU1VtMjBjVGpHc2EzdGMxVHM4dXJMN3BocEVLRW02a0hUMGNZZzFORFUrRUpCSVJRc0ZFQXhwRERJT2hSOGhNSzBoSUo3TDlGcnFrSEhUMmcrZTJIdWFYMW9IV205cVRhRWFrbDh2VmtkSmpjSXF1ZE9yUDNjaWVtTnJaMjN0M2NQYlJ5YWNmekVxV2RSb1J0OU81WnZEbXFnSGpTY2IwamZxTlRJUW8wdkZCUVVLQktESjRZVEJsaUhBbzlRZ09aUVVPOG5lbzBsTkErRTVyVVgxaUN1RWEwanJibFFmUWpWazY4NVdjYm1jTW03N3NZK0VkMHgzVGFITmc3TjZONDF2SllLWGZieVJEUTF2S0dRb0VDSm9TTXp3VVRCMWFHZ0l4U2NPUlRPNjRKZWJ3N05SMFJ6TytYV2dkYUoxcFBXbmVwRHFLYkUxNTJ2UjZwWHJPdU9yLytQMy9QdDdOTmFMemk1L1J1VDFtcWpqWU05dW9JK0d3dmM2RzlKdmpHRW1xY0h6VVliZzFBVFU4TUxCUVFGQ1FXT0R5UU1yQWtLdW9nQ000WENlRjNSNjAraGVZbG9mbnRoUGVKYTBaclMyZ3ZWaVZCZHhkcGJkSE9Rd25jOW5HbnZIdG80OEtQMHVJeTkra2lKR3QxUU9GQ1F4TENKWVlTQjFhR0FpeWdvVXlpQTF4MGRSd3JOVDBUejNIUHJFZGRMYUYxcC9hbE9oR3BMZlAxbE53ZWgrdTc0UHNqZDg2QithZy9qYStQQWoyTW5UbDlFQlM2LytMSnJaaHBDcUdsNjBHUzBNUWcxTHpXNlVEQlFnRkRRK0NEQ29PcFFzRVVVa0lSQzl5Q2hZMHFoZVlwb3ZudHVYZUthMGRwU0RRalZpMUI5K2ZxenVreHVFRlRmSGQ4SGVvek16Ly9XZTdGdnBIMjAxTWFCSDhlMnRxK2o0cGJxcTVTb3dUcTBPVkRqQ2pXNVVDaFFnTVNROFFIVWc1Q2lRSXNvR0FtRjdVRkZ4MGRvdmp5YTgxNVltN2gydEw1VUIxUXZRdlhsYTFBVzNSd2s5MFZBWFYvOVJmdG9xWTBETzQ3LytwbC9zN0c1L1dNdTdwMytZV08rR2FoaGV0QmcxbncxbXdNMXVGQWdVSERFY0pHWkFLS0E2bENnZVJTSWhBSjJHYjd6d3pMNjk1YUJqak9pT1l0bzNudHVmZUxhMFJwVExRalZEZFdZK0RyMDlVbjFTM1h1ZTBGeVZ5MTF6cmJOb1kwRE96Wk9ibTlDVWZkMDQ1c2VGK0NiZ1JxbUI4MUZHNE5RMDFLREM0VUJCVWNNRng4OEdFd2RDcktJQWpHaVlCMkx3bjhvK3JsajBmRkdORzhSemYvTUduWGlHdEk2VXoxUTNRalZtYS9ETVp1RCtIN1FEWEdwcTViYWVZYzJEdlRZMk5wNUp4VzJ2UGdOdDh3MGdsQ3o5S0M1YUhPZ2hoVnFiZ29DaVlFUlEwVm1nb2VDcVVNaDVsRVFSaFNvUTFIQUx3djl2cUhvdUNPYVA0L212K2ZXS2E1aFhHZWhlcURhRWFvelg0dXk2T2Fndnp5MTh3NXRITXJSRlhEeUV0YTNuN2x2cGhHRW1vVWF5NXF1Wm5PZ3hoWUtBZ3FNR0NvK2NIb1FTaFJnSGdWZ1JFRTZCSVg1cXREdkg0S08zNk01akdnZDRsckZ0YVQxcHJxZytoR3FOMStQaTI0TzBzNDd0SEVvUis1OGcyNzA4VTFBamRLRHhxS05RYWhacWFtRlFpQUdSUXdUbVFrY0NxUU9oWmRIQWVoUmdOYWk4TjRyOUhwcTBCeEVOSThlclVQUHJWZGN5N2plUW5WQjlTTlViNzRlclU0WDJTRGFlWWMyRHQxNDVzblR2d3pGM0h2MlM2NmVhUUNoSnVsQlU5SG1RSTBxMU5RVUFCUVVNVXg4MFBRZ2pDaTRQQXEraUFLMEJnWDJYcVBYVllQbUlhTDU5R2c5L0hyRjlaUzQ1bFFiVkVOQzllWnJVaGJkSE5wNWh6WU8zY2pkMzNEeTRodG5Ha0NvU1hyUVZMV2JBelcwVUFERWtKQVlKRDVvTUlnNkZGcUdBaStpNEN5aGtONVA5QnByMEh4NE5LY2VyVWZQclZ0Y1UxcDNxZytxSTZvNThYVzU2T2JRemp1MGNlaEc3bVQwRzY0NE85TUExQ0E5YUNocnRsVnZEakZFeEljTWhSQUZsa2VCNTFGZ2xsQTRyd3Q2dlNVMEx4N05xMGZyNHRjdHJtbGNkNkg2b0RvU3FqdGZsNzVlNStxWmFyN2plMFBhZVljMkR0WElmVmYwTXU1djhBMG8xS1RVek5UNEZCQXhSSHpBWUFCMUtLd01CWjFIUVZsQ2dieHU2SFhuME54NE5MY2VyY3ZNMm5YaTJzYTFweHFoV2hLcU8xK1gyYzFCcU80N3ZqL3k1eDIycjJ1YlF4c0hadlEzdjJXZXAvVEorNzQ3VS96VUhEMW9KdG9jcUVHRm1wa2FQNGFEeEFDWkNSZ0lJQW9xajRMT282RE1vU0JlVi9UNmMyaCtQSnBmUTJ2VGMrc1gxNWJXbitxRTZvbnF6dGVtTExvNW5QbllWOUpQYVczZkR0ZkdRUnE1azlHTFBFL0ptcXhtYzZCR0ZtcjZHQXd4UEh5dzlDQjhLS2dNQlp4SEFabERBYnpPNkJoeWFJNDhtbU9QMXNldlgxemZ1UDVDZFVMMVJMVW52ajRYM1J6MGw2bmtTZW5ON1IrM3phR05Bek82dDdySjcyOTQ2U1czemhTK1VITlFJNjNGNWtEQjA2R1FNaFJ3SGdWa0RnWHdHTjk5S28vK25iSG9PSEpvbmp5YVowUHJNN09HbmJqR3NRYW9UcWllaE9yUDErZWltNFBrVGtwZmVHTDdHWlBXYTZPTjlSNWR3VjRXQzloVWYzOEROQkp0REVMTlNVMU1EUjlEUVdKd3pBUUxCQThGbEVmaFppZ1ljeWg0aDZCTm9BYjlyS0hvZUZKb3JqeWFaNC9XeWE5alhPTllBMVFyVkZOQzllZnIwK29XTndpcS9VN3NrZWY5M3ZYWVQ5S3VXR3Jqd0l5TnJlMHpWTVR5bnVzZm1pbDZhb3dlTk5KQjNCd28yRHdLeGhRSzNGb1UrR1BReng2Q2ppdUY1c3ZRWEh1MFRuNGQ0eHBUSFZDOVVGMVIvZm42ekc0T0F2WHZlMFQrN1JzL2p2M1UyOXgrM2FUMTJtaGp2VWRYc01uSFp1aW1IbC8wMUJnOWFDTGFIS2d4cVlHRm1qMEdRZ3dOSHlnOUNCMEtKMFBCNWxFb3BsRFkxcUNRWHhUOW5ocDBYQ2swWHg3TnQ2RjE4dXNZMXpuV2dWQzlVRjFSRGZvYWxhR2JnL2creVYyeHRMRzE4L1oyM3FHTkF6RzZZbjJDaWxqMjRrb2xhbUNoWm8rQkVFUERCd29GRGdXVFI2Rm1LQkJUS0doclVMQXZDLzIrR25SOEtUUnZodWJiMEZyMTNIckd0WTYxUVBWQ2RTVlVoNzVPRjkwYzlJNmIrcW0zdVgxejJ4emFPQkFEQzNqQ0Y3eFFVL1NnaVphOU9jUXdrQmdZUGt3b2JDaVlEQVdhUjJHWVFpRmJRb0crYlBSN1MrajRVbWplRE0yNVIrdmwxek91ZGF5RldDOUNkU1ZVaDc1T0Y5MGNiam43alhZNWF4c0hleHcvY2VwWldNQ2QvYnlNbFJvOWhvSEV3UEJoUW1GRG9XUW8wQXdGWVFvRmJBa0YrYXJRN3kraDR5UTBkeDdOdTZIMTh1c1oxenJXQXRVTTFaWlFIZm82WFhSejBHTTBjczlZYXB0REcycy9MdGc4L1J3cVlIbis2MjZZS1hpaHBxQUdhcHREUFFyd1ZhUFhrVVBIbVVMeloyamVEYTJYWDgrNDFsUVBzV2FvdG9UcTBOZXByOSs1K3FZZTZNUmUrYVh1TDFmVVY5SXVaMjFqN2NmRzVzN0xxWGpsbFcrOGJhN2dxU25tbXFkREc0TlFVMUx6eGlhWEdBUXhMSHlRVU5CUUlIa1Vab1pDa0ZDdzVsQnc3d1Y2TFRsMHJDazBmNGJtM2RDYStUV042eDNyUWFodXFMNm9EbjJkTG1OemVPNUZIOEsra2d1ZmYvcG5KeTNZUmh2ck9ZNXQ3bHhLeFNzWFgzN1hYTUZUVTh3MVQrZWdiUTRVWkI2RklLRmd6YUhnM2l2MGVuTG9lQW5ObjZHNU43Um1mazNqZXNkNkVLb2JxaStxUTErbjJjMUJvQTlpcitRZXdIZDg4OHBmbWJSZ0cyMnM1K2dLTlhrRDNGdE9uNXNwZG1xSUhqUVBiUTdVa05TNFFrMGVneUNHaFE4U0Nob0tKRU5CWmlnQVV5aFVVeWl3Uzc3MzFQK2RSUC8vSEhwTk9YUzhoT2JRME54N3RHNStYZU9heDVxZ3VxSDZvbHIwdGJxTXpVRmZyVXQ5SmUxR3VEYldmbXhzYmIrTmlsZXUrT0Q5TThWT0RkR0Q1bW1iUXhrRmRncHRCb1QrM1J4NlhTbDB2SVRtMEtQNU43UnVmbDNqbXNlYW9McWgrcUphOUxVcWkyNE8vKzR2N3NDK2tndTJkclltTGRoR0crczVjbmRIdDgzaFBBcEFRb0dhUTJGTmFCUElvWitSUXE4cmhZNDVoZWJSMFB3YldqZS9ybkhOWTAxUTNWQjlVUzM2V3BWVmJnNWQzNzE2MG9KdHRMR2VvMjBPNTFHSUdRby9Rb0dhUWtHZFFodEFDZjBjUXE4dGg0NmIwRHdhbW45RDYrYlhOYTU1ckFtcUc2b3ZpYlhvYTFVVzNSenlkMG0zemFHTk5SKzV6V0dkSHAwUlEwQmlVUGdRb1pDaE1ESVVZb2JDajFDWXBsQlFFd3IrV3ZUekNMMitGRHB1UXZOb2FQNE5yWnRmMTdqbXNTWmkzUWpWbDFBOStucGQ1ZWJRdmhHdWpiVWZ1cFdmaTdkdERvYkNqMUNZcGxCSUV3cjlXdlR6Q0wyK0ZEcHVRdk5vYVA0TnJadGYxN2ptc1NaaTNRalZsMUE5K25wZGRIUFFPMi9xcS9QYTV0REdtbyt1VUEvRVEvZGlDRWdNQ2g4aUZESVVSb1pDekZENEVRclRGQXBwUXFGZmkzNGVvZGVYUXNkTmFCNE56YitoZGZQckd0Yzgxa1NzRzZINkVxcEhYNityM0J6MG5lMXRjMmhqclVkWHFNbk5RYytIOGNWT0RkR0Q1bW1iUXg2Rk5LSFFyMFUvajlEclM2SGpKalNQaHViZjBMcjVkWTFySG1zaTFvMVFmUW5WbzYvWG9adUQrSDdKYnc3Ylo5cm0wTVphajY1UWs1dkRPajJSTllhQXhLRHdJVUloUTJGa0tNUU1oUitoTUUyaGtDWVUrclhvNXhGNmZTbDAzSVRtMGREOEcxbzN2NjV4eldOTnhMb1JxaStoZXZUMU9uUno4TDBpMmMxaGMrZFUyeHphV092UkZXcmJIRG9VWW9iQ2oxQ1lwbEJJRXdyOVd2VHpDTDIrRkRwdVF2Tm9hUDROclp0ZjE3am1zU1ppM1FqVmwxQTkrbnBkZEhONCs1bjdzSy9PYStjYzJsanowUlZxY25PNDRST1B6eFE3TlVRUG1xZHREbmtVMG9SQ3Z3YjlyQlI2ZlNsMDNJVG0wZEQ4RzFvM3Y2NXh6V05OeExvUnFpK0p0ZWhyVlJiZEhOclZTbTBjNk5FVjZYVmN2QWY4VytBZ1pDaU1ESVdZb2ZBakZLWXBGTklwRlA0bDlITUl2YllVT3VZVW1rZEQ4MjlvM2Z5NnhqV1BOVUYxUS9VbHNSWjlyY3BLTjRmTm5UK2V0R0FiYmF6bnlOM25zT3p2ajQ3TktOUzBRazBlZ3lBR2hROFJDaGtLSTBNaFppajhDQVZxRG9WMUNtMEFLZlR2cDlEclNxRmpUcUY1TkRUL2h0Yk5yMnRjODFnVFZEZFVYMVNMdmxabDBjMmgzU0hkeG9FZXVxU09pbGZhSGRMblVmaWxVS2ltVUZqbjBFWVEwYitYUTY4cmhZNlgwQng2TlArRzFzMnZhMXp6V0JOVU4xUmZWSXUrVnFWdERtMGM2ZEVWYXZLcHJHODZkZTljd1ZOVFVQTWNwczFCS0FRSmhXb0toWFdOWld3S1FxOHBoNDZYMFB3Wm1udVAxczJ2YTF6eldCTlVOMVJmVkl1K1ZxMStGOWtjWG5iSnJkaFgwcDdLMnNiYWoyT2IyNituNGhWOVpob0xucHFDbW9jMkI2R21wT2FsSm85QkVJUENod2lGRElXUlIyRm1LQVFKaFdvT2hmWmVvZGVUUThkTGFQNE16YnVoTmZOckd0Yzcxb05RM1ZCOVVSMzZPczF1RHRRRG5kZ3J1ZTl6YUp0REcycy9qcDA0ZlJFVnI3em1yWGZPRlR3MXhWenpkTlp4Y3hBS0pVTmhaaWdFQ1lWcUNRWDNxdEhyeUtGalRhSDVNelR2aHRiTHIybGM3MWdQUW5WRDlVVjE2T3QwMVp2RE0wOXNQM2ZTZ20yMHNaNGo5eldocjc3c2pybUNwNmFZYTU2T2J5N2ZkTlNVMUx6VTVCUUdNVEI4bUZEWVVDZ1pDak5ESVpoQzRacEQ0YjFxOURweTZEZ0p6WjFIODI1b3ZmeDZ4cldtZW9nMVE3VWxWSWUrVHBNYmcxQVBkR0t2Wkw5RHVuMU5hQnZyUGk0NGNlcDVWTHlpYjdLS0JVOU4wUXNOZE5nMkI2RXdKQlN1SlJUZ3EwSy92NFNPazlDOGVUVHZodGJMcjJkYzYxZ0xWRE5VVzBKMTZPdDAwYzNoL3EvK3krNkZKN212Wk9OMzN2R1RreFpzbzQzMUhNZFBuSG9XRmEvOFl2YzNIMS93UWszUmd5WmFaSE1RYXZZWUNERXdmSmhRMkZBb0dRb3pqOEl3aFFLMmhJSjgyZWozbHREeHBkQzhHWnB6ajliTHIyZGM2MWdMVkM5VVYwSjE2T3QwMGMxQnp5VkxiUTdkdS9XbjJnMXdiUnlJc2JHMS9kK29pT1hjbDM4NFUvVFVGRDFvb29PMk9RaUZtcUV3VEtHUXJVR0J2aXowKzJyUThhWFF2Qm1hYjBOck5iT1duYmpXc1Jhb1hxaXVxQWJGMSttaW04UHBteDdHZnBvNDJ6YUhOZzdFT0xhNS9SQVVjRytkSHFFaE1SQmlZTVJBb2RDaGNESVVhaDRGWWdvRmJRMEs5a1hSNzZsQng1VkM4K1hSZkJ0YUo3K09jWjFqSFFqVkM5VVYxYUN2VVJtNk9mZ2VFVjBHVHYwazdhRjdiUnlZa2Z2Q0h6MDh6QmM5TlVZUG1vZzJCNkhtcENhbVpxZFFpTUhoUTRWQ2g4TEpVS2g1RklvcEZMWkRVTWdQUlQrM0ZoMVREczJYb2JuMmFKMzhPc1kxcGpxZ2VxRzZvdnJ6OVdsMXU4am04SnEvK2dUMjA4U2Z0YzJoalFNeE5yYTIzd1lGM0x2NDhydm1DcCthZzVySU41bHZQbXBPYW1KcWRncUZHQncrVkNoMEtKdzhDamREb1poRG9Uc1VoWDRKL1p5aDZIaFNhSzQ4bW1lUDFzbXZZMXpqV0FOVUsxUlRRdlhuNjlQWDdWeGRVKzEzWW8va0xtUGQyRHo5MjVQV2E2T045UjY1eTFsZmVzbXRjNFZQemRFTGplU2J6RGNmTlNjMXNWRFR4MkNJd2VGREJVT25Rd0ZsS053OENzY2NDdDVGckdvejhPZzRjbWllUEpwblErc3pzNGFkdU1heEJxaE9xSjZFNnMvWFozSmpFS3I3VHV5UjNHV3N4emV2L0pWSjY3WFJ4bnFQQ3paUFA0ZUtXSjd6cW12bkNwK2Fvd2ZOdEIrYmc4eUVDNFFQaFpSSEFXY29IRXNvZ05jVnZmNGNtaU9QNXRlajlmSHJGOWMycnI5UW5WQTlVZTJKcjg5Rk40ZDJHV3NiaDJZY2Y5R1puNklpTmlwMlgvelVIRDFvcHRyTlFhaVpxZWtwSEdLQStIQ2g4S0dROGlqa1BBckpIQXJoZFVTdnZZVG14NlA1TmJRMlBiZCtjVzFwL2FsT3FKNm83bnh0eXFLYlE3dU10WTFETlZTMFZNeXk3TzkxRUdwU2FtWnFlZ3FIR0NBK1hEQjhPaFJXSGdXZFIwR1pRMkc4VHVnMWw5QzhlRFN2SHEzTHpOcDE0dHJHdGFjYW9Wb1NxanRmbDFhdlF6WUgzeHVTKzNyUVRydU10WTJETlZTMG9ZaW5sdkVBUHZGTlNFMUt6U3pVL0RFZ1lvRElUTWhBQ0ZGWWVSUjJIb1ZsRFFybS9VYXZzNFRtSktKNTlXaGQvTHJGTlkzckxsUWZWRWRDZGVmcmN1akdJTEUzOG8vcTNubG4yeHphT0ZDaks5emtvN3RQWG56alhBTlFrL1NncWZaaWM1QVlKRDVrTUlRNkZGZ2VCWjVIb1ZtREFucS8wT3VyUWZQaDBYeDZ0QjQ5dDI1eFRXbmRxVDZvanFqbXhOZmxNamFILyttVkg4UStrbmFsVWhzSGJ1U2VzZlRzbDF3OTF3RFVKRDFvcXRyTlFhaXBxZmtwSkdLUStKRHBRUkJSYUhrVWVoRUZadzBLNnIxR3I2c0d6VU5FOCtuUmV2ajFpdXNwY2MycE5xaUdoT3JOMTZRc3VqbDg4cjd2Wms5R1gvakNLMzk2MG5KdHRIRXd4dkZmUC9OdmNvL1IwRWsyM3dUVUpEMW9LdG9jaEpxVm1sb29CR0pRU0F3VEh6WVlSaDBLTG8rQ3o2UHdISUpDZTlYb2RkU2lPWWhvSGoxYWg1NWJyN2lXdE41VUYxUS9RdlhtNjlIcWRNam00SHRDc3VjYk5yY2ZhaDhwdFhFZ1IxZkF5Zk1PYnpsOWJxNFJxRm1vcVh6VCtXYWtacVdtRmdvQkNvc1lLRDVzZWhCSUZGNGVoVjlFSVRvRUJmZ3EwTzhlZ280OW9qbU1hQjM4T3NWMUZGcHZxZ3VxSDZvMThmVTRkR09RMkJQdGZFTWJoM0owQlp3ODc3REl6WEJTdXprSU5UZUZnTVN3b0ZEeG9ZT2gxS0VBOHlnRUl3clRvU2pRbDRGKzF4aDAzQkhObjBmejMzUHJGTmN3cnJOUVBWRHRDTldacjBWWnh1YlF6amUwY1NqSFhwOTNFR3BhYW02aE1LRFFpTUhpUTZjSHdVUWhGbEVRUmhTb1kxSElEMEUvY3hGMHZCSE5tMGR6M3d0ckZOZVExcG5xZ2VwR3FNNThIVnA5THJJNXRQTU5iUnphb2ZNT1ZOUm1HZWNkeERjbE5TMDF0MUFZVUdqRVlKR1o4S0Z3NmxDWVJSU0lFUVhyc3RBbVlPai92eXgwbkJITlYwVHozblByRTllTzFwaHFRYWh1cU1iRTEyRjJZeENvYzk4TDBzNDN0SEdvUis3eDNkWDNPd2cwV08zbUlOVGtRb0ZBNFJFRHhvZFBqd0txUTRIbVVTZ1NDdGlEaUk2TjBGeEZOTjg5dHk1eDNZVFdsK3FBNmtXb3Zud05Tblp6b1BydXhGN1ExK3BTMzBnNzM5REdnUis1SjdTdTRqbExRczFMVFM0VUNoUWVGREkraERDa09oUnFFWVZqQ2dYdVFVSEhRMmlPSXByclhsaVh1R2EwdGxRRFF2VWlWRisrL3F3dUY5a2M5SWlabi8rdDkyTGZTRHZmME1hQkg4ODhlZnFYcWJqTk1yNzhSM3h6VXZNS05icFFNRkNJeEtDSlFZUmgxYUZ3aXlna1V5aDQxeDBkUndyTlQwVHozSFByRWRkTGFGMXAvYWxPaE9wS2ZQMHR1akhJZTY1L0NQdEZkSWw0TzkvUXhxRVlYVEUvUmtVdWI3amk3RnhqVVBQMG9ObG9jeEJxWUdwMm9YQ2dFSkVZTmo2TWVoUllIUXE0aUlJeWhRSjRIZEZyejZGNWlXaCtlMkV0NGxyUmV0TGFDOVdKVUYzRjJsdkc1dkRpTjl5Qy9kTGIzTDY1ZmFUVXhxRVlYVUVuTDJuOXRWZCtZSzR4cUhsNjBHeldpSEdEb0NZV2FuaWhnS0F3aVlFak02RkVvVFZCUVJkUllPWlFJSzhMZXIwNU5COFJ6V3N2ckFPdEU2MG5yVHZWaDFBOWlhODdYNDlVcjFqWEhWLy9kei80WlA0anBST25mbmZTV20yMGNiREg4Uk9ubmtWRmJwYnhsRmJ4VFVwTkxOVDBRaUVoRkNneGRHSXdZWGgxS093SUJXY0poZk4rb2RlWFEzTkFhRTZuM1B6SDlSRmFSMXB2b2ZvUXFpZGZjN0xveGlENktsM3FFOW5ZM1A1eCsvNkdOZzdWT0xhMWZZNktYVjd6MWp2bkdvU2FxQWROUjV1RFVETlQweHNLQ2dvVkNoOGZUajBLc0E2RkhxRVFyVUZodlZmbzlaVFFzUk9heTZrdzkzRnRhQTJGMXB2cVFxaVd4TmViMWVHaW0wUCtLMEYzVHJXUGxObzRWT1BZNXM2bFZPenlpeSs3WnE1QnFJbDYwSFMrS1gyelVqTUxOYjlRV0FnRlN3d2dpU0dGUWRhaDhFdWhRSzFGQWI1czlIdHIwZkdtMER6MndwelR1dEQ2MFRvTDFZVlFIZmxhayt6R0lGVFBIVi8zcFJ2ZkxqaTUvUnVUbG1xampjTXhqcDk4ejg5UXNadlROejA4MHlUVVJGUFFlTFE1Q0RVMU5iK2h3S0J3RVFxaW1iQ2lNSnVnQUV5aFlCMktnbjBzK3ZsRDBYR20wUHoxd256VGV0QzYwUm9MMVlOUURZbXZNNnUvNU9aQWRkenhOUzl2T25VdjlvZHNiTzA4MGQ0MXRIRW9SMWZneVFmeExlczdIc1EzTFRXMVVBZ0loWVpReUVnTW94aFlHR29URklRNUZMS0xvT0NQNk45YkJCMVhDczNaVkpqbnVBNUM2eVcwdmxRTGh1ckgxNWhrTndhaE91N0Vtbi91UlIvQy9wQnVjM2g3Mnh6YU9KVGoyTmIyYTZub1RmWGpOQVFha0RZSG9lWVdDZ0toOEJBS0dncWxHRndZYmhNVWlqa1V1QWNCSFVzT3pkVVV6REd0QTYwWHJhdFFIUWpWamZqNnNycExiZzVVdnhPKzN2WHVtZnJDSEQ5NTFTOU1XcW1OTmc3WDZML2pJZlBkMHE5ODQyMHp6U0xVVUQxb1F0K2t2bm1wdVlYQ3dGQ0FVTmdJQmROY2dGSElUVkE0bGxBQXJ5dDYvVGswUnpQQzNOTDgwenJSbWdxdHY2RzY4YlVsMlkxQnFINDdzZGFmOTN2WFkxLzAyck9VMmpqc295djA1RDBQUC9lYlYvWFhlUHVHb2FhYWdrYWt6VUdveVlVQ1FTaEVoRUpIS0tCaWlHSFFPUlNVSlJURzY0SmVid25OeTR3d3B6VHZ0RDVDNjBscmI2aGV4TmVWMVZ0eWM2QzZuZkIxZnVaalg4R2VtTnJjK2VOSkM3WFJ4dUVjT2pHZCs0YTRpeSsvYTZacGhCcXJCODNvbTlVM3NWQ2pVeWdZQ2hPaDRCRUtxaGhtR0hnT0JXWU5DdWY5UUsrdEZzM0hGTXdselRldGk5QTZDcTI3VUsxSXJLbnN4aUJVdDUxWTR5Kzc1RmJzQjlHNzdYWnZReHRIWXVpSmt0UUVvdTk1MEVQSGZPTlFjL1dvR1R1cERZS2FYU2djREFXS1VBQUpCZFpjc0ZINE9SU2NRMUJvcnhxOWpsbzBCek5nRG1tZWFUMkUxazlvdlEzVmlhOGw4WFZHZFlnMU8rSHJXK2ZhY3BldnRuY05iUnlaVVhvWVgvVlhpQW8wcFcvYTJORFU5RUlCWVNoWWhJSklLTGdvNERBSUhRclNNU2pNRjBXL1p3dzY3aGt3YnpTL3RBNUM2eWEwem9icVEySXRaVGNHb1hydHhOck92bXZvM21XM2R3MXRIS21oaDRkUk00aWV0N1NxZHc5Q2pVOGhZU2hjaE1KSUtMeUVnZzRETWFCUVhSUUZQcUYvZHhub09PZkFmTkc4MGhvSXJablFHaHVxRFlrMTVPdUw2ZzlyZGNMWGRlbGRRL3ZlaGphTzNNaDloYWdzK3U1Qmhtd09RbUZoS0dTRVFra294SVFDRDRNeG9JQTlpT2pZVUpnam1rdWh1UmRhSzBQcmE2Z3V4TmRQY1dNUXF0Tk9yR2s5T29icVgvcEhjNS9ZZnNha1pkcG80K2lNM0xmRTZkekRzcTVjRXQvY1FnRWdGQmlHZ2tZb25Bd0Ztc1R3NjFGSUJoUzRCd0VkQzRKNW9ma1RtbStoTlRLMHJvYnFRV0x0ak4wWXhOZXpIcFdSZmZwcWU5ZlF4bEVkWGZHL21KckNMSHJsa2h6R0RVSW9nTmNSdmZZa21BK2FONkY1TnJRK1F1dHBxQTRrMW95dko2bzNyTTJKV011NTcyeG83eHJhT1BJajkrNUJGcjFyV3BhNU9RZ0ZqMUJRR1FvNG9VRHNVWGdtVUNqdk4zcWRTWFQ4SFpvdm9mazF0QzVDNjJpb0JpVFdTM0ZqRUtyTGpxOWhLZDBOM2Q0MXRISGtSK25LSmYzdEtqWVdOZDhVTkt4djZ0andGQXBDSWVKUkFBa0ZscUdnTXhTT0dLUUZGTlI3aFY1UEZoMXpoK2JIMEx3S3JZV2g5Zk5vL1NYV2lxOGpxak9zeHdsZnY3clk0cGRlZGczV3U3UjNEVzIwTVJtNUs1Y2tQckZWcUFGNzFMUWQzOWl4NlNrWWhJTEVVQWdaQ2k5RGdXY29LSHNVckpVb3hKZUZmbDhWT3NZSm1oZWh1VFMwQm9iV3pxTjFsMWdqdm42b3ZucFVqNTFZdS9wcVhLcHowOTQxdE5IR1pKVHVtbjdPcTY2dHY3UlZxSEU3dnNGajgxTkFDQVdLb1REeUtNZ01CYUNoME94UjBJNUVZWjlDLy80b2RFd1ROQStHNXMvUXZCdGFNNC9XVzJKdCtMcWh1dXBSSFU3NHV0WEhwTm1UMEpzN1QxMzR3aXQvZXRJYWJiVFJodjYyUk0xaTlKeDczMlJDamRpajV1MzRKbzhCUUNGaEtGZzhDaVpEZ1dZb0NEMEswU2tLMzNWRnIzK0NqdHVqZVRNMDM0Yld5YU4xTnI0dWZNMVFUZldvQmlkaXplYSs1VTNhOTBPMzBVWVlwU2UyNnFGOEg3L24yek9OUnMwNFJVM2M4YzN1UTBBb0tBd0ZqRWNCWlNqWVBBcEZqMEoxaXNKNEhkQnJkZWc0UFpvbmorYlowUHA0dEw0bTFvU3ZGNnFuSHRWZng5ZXFYUEhCKzdHMm5iUHQ0NlEyMm9CeGJIUDc5ZEF3VTg5LzNRMzc5dkdTVU5CNEZGU0dBczZqZ0l3b1pHZFFTTzhsZWswQkhaZEhjK1BSM0hxMExoNnRxNG0xNE91RTZxaEhkVGZoNi9UY2wzOVlQQW5kdnEraGpUWXlvM1JwNnlYdnVudW02WVFhYzRvYXV1TWJQNFlDQlllaHdQRW9zRHdLUEk4Q002TFFSUlRneTBTL000R09JNkw1OEdnK1BWb1BqOWJUeEJydzlVSDEwNk42bTRnMSt1ckw3c0I2TnQzbThMYjJycUdOTmpLajlGZ051ZUVUajg4MEhqWG5GRFYxeHplL3hIQ2dBREVVUEI0RmwwZkJGMUY0RWdyaUtoVDJLZlR2VjZEWFMrajRJNXBIajliQm8zVTBjZTE5WFZEdDlLaldKbnh0U3VuanBQWkk3amJhcUJ6Nld4UTFrUm4wWUQ2aDV1NzRFSWdCSVJRa2hnTElvd0NMS0FRakN0TVVDdWk5UnE4cmhZNDNvbm56YU80aldqOFQxOXpYQk5YTUZOWFpoSzlMblNmTFhaMGtHNXVuZjN0UyttMjAwVVp1Nk9SMDZlTWxQYkRNTjZGUW8wNVJnM2Q4R01TZ0VBb1VRMEVVVWFCNUZJaUV3cldFd252WjZQZVcwUEZGTkZjUnpYZEU2MmJpV3Z0YW9GcVpvdnFhOFBXb3Y4QTg5NklQWWYxT2JXN2YzRDVPYXFPTkFlUDRDM2FlbmJ2M1FmVFZpcjRaaFJwMmlocTk0ME1oQm9aUXNCZ0twSWlDTGFLQVRLSEFIWXFDUG9YKy9hSG9PRkpvZmlLYTU0ald5OFExOWpVZ1ZDYzlxcXVKV0l2Rjh3eWIyeisrOFBtbmYzWlM4bTIwMFVidE9MYTVjeWsxbGZuL3ZQVDl3ejVlRW1yNGpnK0dHQnhDQVdNb21BaUZYRVJobVVJaHZFN29OZWZRZkVRMHJ4R3RrVWZyNjllZjZxTkg5VFRoYTFBcUxsdHRIeWUxMGNhWWNlekU2WXU2ZHc2UFVWTjUvK1hxKytZYWs1cDNCalYreHdjRUJRZ0ZqVWRCRlZIZ0VRclBFZ3JvdlVhdnE0U09uOUI4UnJRdUhxMnJYM2VxaXg3VmtlUHJyK284UTN0RVJodHQxSS9KdVliWDUyNkdpMTUyNmEwempXbW9nYWVvK1NkOFVGQ1FVT0I0RkZpRXdvOVFtTmFpOEY0bStwMUQwUEVTbWo5QzYrSEZ0ZlJyTFZRUFBhb2h4OWRkMVhtR3JlMXo3ZXFrTnRxb0dIcTJVdGMwbCtrejJQbEd5dE5UVzYrNTlkR1pCalhVeUZNVUFoTStNR0tnQ0FXUFI4RkZLQWh6S0dBWFFZRWYwYiszQ0RxdUZKb3pRbXNReFRYMGF5eFVCejJxSFNmVzNDdmZlQnZXcVdubkdkcG9vMkljZjlHWm45SmxxNlVUenltLy9QSnJkbC83WHo3Uis5aG52am5YcUVJTlBVVmhNQkhESTRZTEJWQkVRVVlvR0Vzb2VOY1Z2ZjRjbXFNVW1uY3ZycHZFdGFYMTcxSE5PTEhXU2llZ3BaMW5hS09Od2pqLzhkSHdkd3FpNXl4dC9zZVA3UDZIdDk0NTNSeis0OXMvMlgvdFlteFlvY2Flb2xDWWlDRkNRVU9CNUZHZ3BWQlExcUJBM20vME9rdG9UbkpvdmoxYXI3aW10TzVUVkM4VHNjWjA1ejdWcXRmT003VFJSbVowRGZMaXpoUFVQQ1g2WG1rMTRXY2VlTEtuRGNFMkI5Rno4dTk5K0FkempVdk5QWU9DWVNLR0NRVU9CVk5FNFpaRDRWbUx3bnJWNkhYVW91UFBvZm1OYUozOE90SmF6NkE2bVlqMTlaYlQ1N0JlWjdYekRHMjBnZU9DemRQUFVZTnc0K1Q5NHN1dTZSdndjMTN3ZjdsclJ2TlBkMzlyYm9PNDlOMTN6MTNlS3RUa015Z2dKbnlvQ0FVUEJSU2hzTXVoTUIyTFFuMG8rcmxqMGZIbTBIeEd0RGJpMTQvV2VJcHF3NGwxVlhmSmFqdlAwRVliYytQNGlWUFAwbDJnMURRbCtwSWZOWi9mRUR3MTU0MTNmWDFtYzVBMy92MDlTOThneEFjTUJaQlFZRVVVZkRVb1lBOGFPcTRhTkk4UnJZZGZNNkYxbmFLYWNHSTk2U1pNZmNSSnRXdDBQdTJDcloydFNUdTAwVVliNTA4MjU3L0FKK1hreFRmdWJuL2tZZHdRSkRhcEhzUzN0QTFDS0RnbVl0aFFJRkZ3RVFyQkdoUzY2NHlPb1JiTlcwUnJJSEd0YUQybnFBNENYMGZYM3Y1WThWNEdhU2VnMjJqRGpmNEd0Z0gzS2hodEN0ZCsvS3U0SVlodnp1ajl0MzVsclRZSW9TQWpGSXBEVUNEdkozcU5ROUU4RVpwMzhldERhemlEMWovdzlhT3YrdnlGbDF5Tk5leDE3eHBlUFdtSk50bzQycU8vWDJGejUzWnFsQng5ZkRUa25VTEsxYmM4Z2h2RWZZODhOZmYvcFFDWVEwSGkrQUNpZ0RJVWFvUkNjaXdLN1ZXaDN6OEd6VWtLemJQNE5SRmF0eG0wN2s2c0cvMWxJL2VsUFZPYk81ZE8ycUtOTm83MkdITnBxcDFvcGczQnhPWXNPWFhEbCtZMmlELzkyOCtNdTRwSktGQ2NHRVlVV0VJQmwwUGh1UXdVN2pYb1p5MExIWDhLemEySmEwSHJOWVBXMjRuMUlqVlhKcDIvYjJmN3RmcG9kZEllYmJSeDlJYWVuanIwS2lTZHhOTWxxZkhxSTQ4YXM5YmZmdWlCNmcxQ0tCaG1VTEE0TVpTRXdrc284SElvVEE4RE90WVNtaytKYzA5ck5JUFdPS0E2a2MwL3VCRnJtdWd2U3h1Yk82ZDBVY2FrWGRwbzQvQ1AvamxJZXVURndMdWJMM3J6N2YwOUNyUWhDRFhrR0V2ZklJU0N4b2toUlVGbUtQeEtLR1FQR2pxdUVwby9pZk10dEM0emFGMERxbytIdnZhajNjdmYvNFhkLy9uZlhZZDFYYlM1ZmZQR3llM05TZnUwMGNiaEhMcG5vZHNVaWs5TTlYU3krZWF6MzhBTndWQlRMaUwxRWRPbnZ2ZzkvUDlUVU15aHdBbGlZRkd3R1FyRFdoUys2NFplZHkyYUx4UG5tTlpoRHExblFIV2g4d3gvZWRXNXZuNWU5YWJiZDUvMXd0Tlk0elg2dmpseCtxSkpLN1hSeHVFWlhYRm52OEl6MG5tRjNMMEtRZzI1TEIrODdhdHpHNFJ1bkx2dWpzZncvMCtCTVllQ0o0amhKUlJ5aHNKeEtBcm52VWF2YXdpYUd5L09LYzM5SEZwRFFQVnc5NE5QOWpkVyt2cjUzLzcwWStQZlFVem9LUUViSjA3OTdxU3QybWpqNEk3elQwNGRkbTVCSHlIbHppc0lOZVF5K0thLzZWUGZtTHVUV3Q3OTRRZjdqd3R5LzI0V0JWRVF3MHdvOUR3S3pVVlFpQytLZnM4aWFCNDhta2VhN3ptMGJpRFdnT2hoam4vME41K2FxUm45ODIyZi9WYi92MnZqMENOYjlCY2dxdjhxbTlzUHRadmsyaml3UTUrVkRya1M2VmRmOFlIZHF6LzZDRzRHSmpiaXNsRGp5eDJmZTJLdTBVV1h1cTd5UElTaGNLTVFqQ2hJRHdzNjNvam1qZVozRHEwVm9IV1gwemM5UEZjcnFoLzZTRklmTytuZHNTN0pwbjZvZFBhQ0U2ZWVOMm01TnRwWTc2R1R6a00vUnRMZnBOUXN0Q0dZMkZ6TFFJMGZuYjMvZS8wNUIycDZiUjVqZjI2UEFncFEyRkVvRWdyWWc0YU9pOUE4MFh3aVdoOUE2KzNQTDNpNWl4azhQVkpEM3pGQ3ZWRmxjL3ZtWjU0OC9jdVRGbXlqamZVYi9UT1JCbnlNOU92Ly9zTzcvM2puNDdnWkdHcW1aYURHVDlISFhIcTNFSnRmZEJQZG9qOGZ3d3BRK0FrRkphSGdYVWYwMmxOb1BvVG1EOUY2QUZwajBTUGY2UzhQZHFkOTd0K045RldocjNucm5jVm5MNlZ0WDljZTF0ZkcybzMrc2RxVkh5T3ArTlU4dEJsNDFFQ0xpazFmNjRISGZ0Ui85M1FNQWRIbGlncUNoWDRmQlZjQ2hhR2hBRTJoWU40UDlOcHk2TGdOelJlaU5VaWdkZFY1Si9vWXllcmhTNC8vYTlYUEllZSsvTVBkTjUyNmQvUjVpYTRYMzM3aEM2Lzg2VWxydHRIRy9venpIeVBWUHl4UG43SHU5ZVdwRWh0MUxGM0pSQ2VxOWRHWW52YTY4TyttSU11Z2dCUUsxU0VveEJkRnY2Y1dIYU9oZWNtaWVVK2c5ZFM3aFhnMWtxZ3VWQi8wY3p6Nm1VUi80ZEFtb2U4a29WN0swWFBLMmtuck52WnQ2RmIvSVI4anZlTFBiOXVYSzVHb1FVZVpoTXRkWC9qdTdwKzkrN056NFNELzVYMmZ4K2N5RFg0ZFBzd3FVWEFhQ3R4MVJzZmcwZkZuMFJ4bjBQcmwzaTJvSGo1OS81UDRzMUxvZHhDOWs5RFRBVVo5M0xTNWMvdUZKN2FmTVduWk50cFkvZEFqTUhUZE5SWmtvS0orKzVuN2NEUHdxREVXUVEwNUNvVE5nMTFRL0IzY1VTMzZHK1ExdHo2Nm5OY0V2N3VFd2pTaVFONVA5Qm9KSFc4V3pXa0dyWm5vVWxRNnR5Q3FnNGUvUHY4eFVnMzZYU202RFBiaXkrOGF2RWxNUHU3OXMvWjFvMjJzZk9qeXVkcnpDL29ZNmJaN3ZvMmJnVWZOTUJZMTRTZ1VOc0ZIUHZrNFh1NHFPcTh5Nmp1cUNmenVXaFN5S1JUY3kwUy9NNGVPcHdyTllRR3Rrejdhb2NlcWlOWmQ5OFBRenhxS2ZuZUtOb2xYWDNZSDlsdmU5cmxubnRoKzdxU04yMmhqdWFQLzNvWEtaeVBwaGpZMUYyMEdob3AvRWRSNGcxSFlaTnp6MFBlVFZ6T0pQb3BZK0lTMUI2OWhDQXJoZFVHdmR4Q2Fyd0phRjlFTmJUcVhSR3Y2NXUxNys0OTdGdm05RWIyR0hQM0Y0NldYM0lxOWw5Tk9XTGV4OUZGNy80TGU5cFllZnlGVThHTlJzNDNpZzJZQUhjOVZOMzBaZzBRVU12cjJPWHJ0Z3ErbEJyeVdNU2lvVjRsZXcyZzBMeFZvSFVUM3J5ajhhUjFGNjR5dlErRDNERVd2S1VkZkpQVDgxOTJBdlpqU1RsaTNzWlJ4L21tcTI5ZFJrVVc2MC9sQWZveEVqVDZRUWsvdkl0NzYzdmtib293K3QxN25UU0luQm53Ty9mdExSWE5RaWVaZGRDY3ozY3htZENtejFoZGZqd2UvY3loNmZTVTZyemYweWlZOUhuempkOTd4azVOV2I2T04rakhraWlUOTdhVjBOWkpRWVk5QlRUVVlOZmRBRkk3L2RQZTNraDlKaUQ2RzBzY1dkRnlDcjdWVzkvc1BKVHJXQVdpZVJaL2g2OTRFV2lmUmhxNzF4TmVVQTY5aEtIcTlPVHFXVjc3eE51elBwTTN0aDQ2ZnZPb1hKaTNmUmh2bG9UdWVhNjlJMG1XcXBmTUxRZ1U5QmpYU0lOVE1BOUNHRU9sMTZ0RUlkRitFV2VrbVliclhjaURSc1l4QTh5cDZ0RVhxWkxObzNmN2hueDd0NnhaZlh5MTRUVVBRYXk5UjNUMzNvZzlocjVMK1M0YmE5MWUzVVRPR2JBejZHM0xjQkNJcTRMR29nUWFoQnE1RW0wQVVyOUQ1L0NNL1RONWRiZlpra3pEZGExeGI5SHBIb25rVWJRcjYzbzdjcHExelp2ckxqbDlYZkwyMTRQVU5SY2VTbzlldjNoeHk2V3UzUVp4cEh6TzFrUnhETm9hOVBQRk1EVE1JTlcwbEh4SXBjVk9JYnIvM2llVE5jMFozM3VwN0kxSlhOd2tlMjdKMHg3Rnk5SHVYaE9iTDZBNTIzYVJJODI3Kzg1WDM3TjU1N2p1NHZnYVBxUmE4NWlIb3VFcjB6S1lYL3VGTjJMK2syeUFlYXg4enRURTNhamNHbmZncVBXSmJxRmpIb0VZWmhCcTFBb1dEUjV0QWlVSktJVVRoNUduanRlOEJTTUZqUFdKb1hvdytnOWU3aE56NUg5SFZTVHF2NE5lSjF0dWplcWtHeDFHTGpyT0c2dW5uZit1OTJNK1JMbGR2SHpPMU1SMTY3Szh1Y2FOaThYUkZVdW41U0VJRk9nWTFTRFZxekVvVUNNYUhTSzM0ckNFRmYrN0tKcU1Ub25yNmErN3h6M2pzaHhqTmdkRmpMblJGV081eVZQTzJNL2YxN3hSb3ZReXR2MGUxVXdXT3F4WWRkdzI5aXhoeUxrSlhLYlo3SW83NE9MOHhsTzk2MW1PMjlRd1oyZ3c4S3N5aHFDa0dvWWFzUUFGZ0tEeEs0cVlRZmVMejMrbERpc0lyMHNjaWV1ZEIzMGJuNFh3Y2NIU2NualpiZlZOZjZvNTFUNCs4K013RFQrSjZwVkE5R0txamFuQ3N0V2dlU3ZTUjVaQTdyUFV4VTNzVStCRWRRemFHdmJwVWxScWhHalZnQldwNlEyRlJRaHRCamo0QzBWdC9Dak9pamVJRHR6M2EvM3MwaHg3TzA1cWo0L0FVY25xSG9EbXIyUkIwQXZyS2YzeW9mekNpbjNkYXV4eXFEME4xVlFXT3Z4Yk5UWTMzWFAvUTdpOVUzaGVoZkdpUDNqaGlvMjBNM09TR3dpSEhoODVZWC9qS1U3czdOejVjL0p6YzAwZFArbHV6cm5ncXZhc3dPSC83aEY0ZjBVYW9EYkhtSXlQem45N3oyZjdmMFdaQzgyMW9QWE9vWGd6VldSSE1TeTJhcXhyNm1PbDV2M2M5OW56VW40YzRjZXAzSjlIUnhtRWVoMnBqb0dhclFJMXRLQkJTS0d3V3BTL2wxNk1jM25VZGYxVHkrMjlMWDRxcGR4VjZNcXorL2R5VlR5azR4d3VpMzFPaXU1YjE3a0FubFZOUFJYMGQvSmsyVnIxTDBHWkNjNXRENjV0Q2RXT28zcXJBM05XZythdWgrbmpOWDMwQ2V6K2hQZUgxTUkvYXE1Sk9Ybnpqb2R3WXFKa05oVUFLaGNzaXRDRVF2ZWFQZnZxYnlZK2RLQ0E5aGFVMkRKM1kxcnVMbW8raTlwbzJNdjBOWCsrQWhyd3pNUHJZeUs3d29ya2RpdFk3aGVySXhOcXJRblZlZ2VhMTFxQ1BtZHI5RUlkejlJL0UyTngraUJiZDA1ZWU2MjhWdEJsNFZHaERVYUZYb2NZcW9BWVdhdm9VQ3BPeGFEUEkwVmRRNm0vVGYxVzRacitHbmlXa3Y1VnIwOUQ5RlFwb1NYMWgwVmo2cU10K3RrNm82L2VKd3B5K1ZXMEl6WU4rcHViRjVvam1lU3hhL3hTcUs2RTZyRUkxWDRIV29NYkFxNW5PdGl1WkR0SG9INkszdVhNN0xQU012ZG9ZcUxDclVDTVZVTk1hYW5SQzRUR0dEL3RGS0JEMW9FTTlGcngwNzhRZlhINFgvbm1KL2hhdlRXU00zRjNJS2JtUHkwVEhxZVBWY2ZzTklZWG1md3lxQjBMMVphZ3VpNmorSzFDLzFkQ2p5R3R2bW10WE1oMmlvYmVEdE1qZVVkb1lxTGtKaGNVWUZGN0xwRzhrcTkwc0RvckxkajYzKzc3dVhZYmVkZFJzQmltMEhtTlFmUkNxTjZINkxLSStxRUI5VjZ2MlBJVE9XeDdmdlBKWEpoSFR4a0VjM2NaUS9ENEduV000VEJzRE5hZWhoaVlVRUVOUVVPMFYyeXdVcnZyNFJWZnVVQUNQOFlkL2ZWZC9vbHhmWFVuLyt4amFDUFRvNmZmZitwVitNOUE2MFhFdGl0WnBLS29WRXV2T1VMMW1VVDlVb1A2cjlaYlQ1ekFub3JaQkhPQnhiR3Y3dGJTbzNsNWRsVVFGWElVYUpvTWFVcWlCQ1FYQ0VCUktxL1Q0ZC82UGF2cm80Szc3dnJ2N3dkdSt1cEtOSTBmdmFQVDd0QUhvUElkZWg3NlRXNitMam11VmFOMkdvTG9oVklkQ2RadEZmVkdCK3JDV0xxdXVlZXhHMnlBTzROZzR1YjFKaStucGtSaTZVNWMyQTQrS1p3Z3EzQ3JVS0JuVWlFS05HMUVJREVFaHRBb3g4SmRGWDJpandQWVU0Z3B6VDMvRFY4aS84OW9INXY0M2ZiZHkvQmw2UjBxL0w0ZU9leFZvSFllZ09pSlVrMEkxbkVVOVVrRDlXRXZmTnZkTEw3c0dzOE5yRzhRQkdoZHNubjZPYmw2aGhUUjZpTjVlUEN1SkNyYUlHaU9ER2srb1VRazFmaTBLbldXaThEeHFhRjZXaWRhMUZ0VVRvZm9VcXVjczZwY0M2c3RhdXZ5NTVvYTV0a0VjZ0hIODVIdCtwdlFnUFQzci9kcVBmeFUzZzRnS3BoWVZhaEUxUkFZMW5GQ0RSdFRzdFNoa2xvVUNzam1QNW10WmFKMXJVWDFGVktkQ2RaMUZmVk5BL1ZsTDcvNTB3UXBsaWRjMmlEVWYzU0tkallzVzZZWWoyZ2dpS3BSYVZLQkYxQWdaMUdqVWxJUWF2QWFGeWpKUUVEWjVOSS9MUU90ZWkyb3RvcnFsK3M2aS9pbWdQcTNWTm9nRFBqYTJkdDVKQyticDI4ZG9JNGlvUUdwUllSWlJBMlJRZzFFalJ0VFFOU2hFRmtXQjE0eEQ4N3NvcW9NYVZIY1IxYTlRclNkUkh4VlF2OVpxRzhRQkhkM0c4R0phS0U4M1JORkdFRkZoMUtLQ0xLTENUNkNHRW1yQWlCcTVCZ1hISWlqY1Z1M3IzOTE3OURyMkFzMzVXRlFQTmFqK0lxcGpvYnBQb240cW9MNnQxVGFJQXpiNlp5WjFpMEdMWkY1NnlhMjRFVVJVRUxXb0VJdW80Qk9va1lRYXo2UG1yVUZoTVJhRjJDcFFTSzhiZXQyclFPc3dGdFZIRGFySGlHcWE2aitKK3FxQStyZldvQTJpZmZYby9vM3pqOGJJUHpOSmw2eXUrbDRHS3NDaVNYRi84ZEduK212ZVp3bytvQWFpUm91b1lVc29ITWFpMEZvV0N0NkRpbzV2V1doZHhxSjZLYUc2aktpK3FRK1NxTDhLcUk5clZXOFFXenRQdEdjeDdkTW9QUnBEVnliVlhMSXFWQVMxcVBpeUprWDl6K2VlNkcrUzBsZG56aFM3UTQxRERSWlJvNVpRSUl4QkliVW9DdFhEaW81L1ViUk9ZMURkbEZCOVJsVG4xQTlKMUdjRjFNdTFhamVJWTF2YjU5clRYUGQ0SER0eCtpSmVqS2ZwQ1ppMEVVUzArTFdvNkxKY1FWLysvaS8wbTRNZXllRC8zRkREVUdONTFKd2xGQUpqVUNndGdvTHpxS0Y1V1FTdDJ4aFVSeVZVcng3Vk8vVkZFdlZiQWZWMERlWEdnQTNpdXZaOUVIczAraS90S2R6b2R0R2JiNS9iQkFndGZDMHF0aXhYeVByZDlnUlBiV0wrZnhOcUZHb29qeHF5aEJwL0tBcWhzU2dnbS9Ob3ZzYWlkUnlLNnFtRTZ0YWp1bys5a1VWOWwwRjlYVXM5UE9BanByZTNEV0xGUStjWnVvM2hNVm9BODV4WFhkc3ZtdDhFQ0MxNExTcTByRkRFZW82OFBYdm5JNTk4Zk9aL293YWhSdktvRVhPbzJZZWkwQm1EZ3JESm8za2NnOVoxS0txdkhLcGZqK3JmOTBjUjlWOEc5WGN0NVlpeXB1cE82cTN0VjdjTllvV2ptK0RzazFiMWFJeFZQek9KQ2l3TEN2anZyMzlvdWpuNEU5TFVHTlJBSGpWZ0RqWDRFQlF5WTFEb3JjbzN2dmZqUFVPL2Y1Vm9ib2VpZFI2QzZpeUg2dGlqUGhEZlExblVoeG5VNTdXVUo1OTU0TW5kWDN2bEJ6Q1RqRDd0dU9EazltOU1vcXlOWlE0OU40a20zZHYreU1Oekd3R2hSYTVCaFpWRmhkdXg3d2YySjZPcEdhaHhQR3E4SEdyc1doUXFRMUc0TFJPRjlicWcxN3RNTk45RDBib1BRVFdYUXpWdHFCL0U5MUVXOVdNRzlYc3RaWW9lRlYvNjJ0RjJpZXNLUnMzSFNhdSswWTBLS29zS3RxTy9aZGk3aG4vNHAwZjdQNk1tb0lZeDFHZzUxTWhEVUpBTVFXRzJLQXJnZzRhT2ExRTAvMFBRK2c5QjlaZEQ5ZTFSYjhTZVNxSyt6S0MrcjJIWmN2VkhIeWsrN3J0ZDRycmtVZm80U2QvTnNGYm5HYWhRSjFSQXRqbm9jZEZVL05Ra2hob3NoeHE0Rm9YSEVCUmVpNkNBUFV6b21NZWk5UmlDNnFFVzFXRU8xYmtYKzRQNktvbjZNNE42djRabGpCN3RmdUZKemlubmJEdi9zSVJSK2pocEwrNW5vQ0xLb2lLZDBIY1VhMlBRUjB1eDZJV2F3MUJqNVZEajFxTEFxRVZoTlFZRjZGRkI4ekVHclU4dHFvdGFWSTg1Vk85ZTdCUHFyU1RxMFFUcS8xcVdNMzl5eGFjeHEyWnQvMFhiSUJZWTV6OU8ybm1DSi9lOFM5NTE5OHdHa0VLTFdZTUtLSXVLYzBKM1JOdTdCcDBmaVFWUFRXR29vWEtvWVd0UVNOU2ljQnFLZ3ZLb28za2FpdGFyRnRWSkxhck5GS3A3TC9ZTDlWZ1M5V29DNVVBTm56ZXZmT050bUZkZU8wRzl3TmpZM0RsRmsycWUvN29iWmhZa2hSYXlCaFZPRmhXbG84dFdiWE80ODl4M1pncWRtc0ZRSTZWUWc5YWlZS2hCWVRRVWhlSXlmWE9QME85ZUpwcTdJV2o5YWxDOTFLSTZUYUg2Tjc1ZkRQVVpvbjdOb0R5b1labWpqN2xmOFBzM1lHNlpkdjVoNUxqZ3hLbm4wWVFhZlp5a0t3VDhKa0JvQVd0UjBTUlJRUWIrcm1qOWZDdHdhZ1JERFpSQ2pWbUR3cUFHaGM4UUZINkxvTEJlRi9SNkYwSHpPUVN0WncycW54cFVyeW5VQjhadkRJWjZEVkhmWnNROHFHWFpvK2U2bFM1eFBiYTVmWFA3ZUduQXFQazRhZFhmejBERmtrU0ZHT2kxK0x1aXJiQ3BBUXcxVGdvMVpBMEtnQm9VT0xVbzdNYWdFRDRvNkhqR29Qa2RndGEyaE9xb0J0VnRDdldEOFJ1RG9aNUQxTDhKbEFzMWZQN29teWVMSjZnM3QxL1hOb2pLMFUzVzYzRVNKOWJxNHlRcVFPRHZpcjd4cnEvM0JVMkZiNmhoVXFnUmExRGpsMURBMUtKd0c0SkM5ckNnNHgySzVyd0dyWE1KMVZNTnF0OFU2Z3NUTndlaHZrUFV4d21VRHpWOERsMzY3cnN4eDR4dWtHdjNQMVNNL3J1Z004OU9xdjA0U1dqUlNxaEFzcWo0QWhWdXZDdWFDdDVRbzZSUUE1WlFzNWRRcU5TaUlLdEZRWHJZMFR3TVFXdFFnOWE5aE9xcmhPbzRoZnJEeE0xQnFQOFE5WElDNVVRTm4wVXYvTU9iTU0rTTd1TnFUM0F0ak5KSjZJUDJjWklWcmI4cm1ncmRVSU9rVU9PVlVJT1hVSkRVb09DcVFZRzVrQ2YzRVAzK0JkRDgxS0kxS2FIMUw2RTZLNkY2VHFFK01YNWpNTlNIYzZpZk15Z3JTbndlNmJFK0ZYZFEvMjM3ZUNreDlNUlZtalNqbTkzOGhLZlFRdFdnb2tpaWdnTXExbmhYTkJXNVVHT2tVTU9WVUdQblVIalVvS0NxUWVFNEdBWDJmcVBYT1JETlZ3MWFueHBVRHpsVWJ5VlUxeW5VTDJiVTVpRFUxd21VRnpWOEx1bnk5ZEw1aDQzTjA3ODlpY00yL05DWFk5Q0VHWjNjOFpPZFFvdFVRZ1dSUklVR3JGalBmT3dyMDgzaDNpLzlBQXVjR2lLRkdxMkVHanFIQXFPRXdxbUVnckFhQmZGQlFjZFRpZWF4aE5hcmhPb2loK3F1aE9vN2hmckcrTTFCcUI4UjlYY0M1VVlObjAydithdFBZTGFaamMyZHA5cmxyV0ZzYk8yOG1DYkxyUHE3b0trWWtxaklBbCtvL3E1b0tteWhaaURVWUNYVXlEa1VGRGtVUmlVVWVsVW9hQTg2T3M0S05LOGx0SDRsVkNNNVZJTTVWT2NwMUR2Rzk1eFFYeUxxOFFUS2poS2ZUN3IvNGJrWGZRZ3p6bXhzYlcrM2o1Y21vNzkwdGRzeGFhSkVKNkZYK1NodUtvSWtLcTdBRjZpS3dkNDE2RzBsRlRVMUFhSEdLcUhtVGFGZ0tLRUF5cUdRSzZKQVBhem8rQXRvbm5Ob0hVdW9YbktvRm5PbzNnbjFqL0Y5WjZnLzUxQ2ZKMUIrMVBBNXBRdHFTZy9vZSthSjdlZE80dkZvajJPYk81ZlNCSmxWUG5HVkNpQ0pDZ3Y0NHRSbHE3WTU2SzdvV05EVUFJUWFLb2NhTm9jQ0lZZENKNGRDTFl1Qzg2aWhlY21nZWMraGRjMmh1c21odXN5aHVpZXhoenpmZTRaNmRBNzFld0xsU0VuTXF0SUQrdHJWUzkwb1hicjZpeSs3WnFWUFhLWEZSMVJRSUJibVgxOHplMWUwTDJRcWZFS05sRU9ObWtOQmtFTkJrMElobGtRQjJaeEg4NVZBNjVCRGE1eEM5Wk5EOVpsRDlVOThIMFd4QjZsUEVmVjlRc3lSR2pHelNwZTNIdm1IODIxczdieVRKK1k4N2JCeFVna3RSZ2t0ZWhJVlV4Q0xVci9EM3hYdEM1Z0tubEFENVZDRDVsQUFwRkN3cEZCb0pWRVk3ck52ZmYvL3hEL2ZkelIvQ2JRdUtiVGVPVlJMS1ZTbk9kUUh4UGRURkh1UituVU85WDFDekpJYU1iTktIeS9wTDgxSDl1YTQwcnVHVlY2NlNndWVSSVVVeEdLVTIrOTlZdnFSa2o1ZXNzS2xRaWZVT0RuVW1EblU5Q2tVS0NrVVZJakNid1VVOUh1RmZ2OUswSHdtMEJvUld2Y2NxcWtVcXRjYzZnZmlOd1NQK3BINmRnNzFmd0xsU2tuTXJ0TGQwNTJqK2QwUHBYY05hM0hwS2hVUWlJV29BazNkRlUxRkhsSEQ1RkJEcGxDanAxQ0lwRkF3SVFxN0phSEEzbS8wT3BlRzVoZlFlcVZRSGFSUWZhVlEzZVpRWHhEcnF5ajJwRkR2enFFY0FKUXJOWHgyNlNQejUvM2U5WmgvcHZzTDlLdVAxQVpSZXRld3lrdFhhYUdUcUhpQ1dJQlduSFJYTkJVM29XWkpvVVpNb1FaUG9lQWdGRWFJd20xQkZNYnJqbzVqWVRUZmdOYVBVRDJrVUoybFVQM21VRzlFMWxzazlpYjE3eHpLZ1FUS2w1S1lZZjk0NStQNWs5TzY5K0hFOWpNbTBYbjRSK2xkd3lxLzNZMFdHVkhoQkxINFJFWDUrVWQrT0gzWG9Kdmc5R2RVMklTYUpJVWFNSVVhTzRVQ2cxQUF6YUV3V3dBRjdrRkZ4N2NRbXYrQTFwRlFYYVJRdmFWUUhhZFFmeEMvSVVTeFA2bVA1MUFlSkZER2xNUWNLOTRjdDdYei9pUHg3dUVvdkd2d2w3RHFIZzBxYUVJTmtrUE5SNmloVXlnb0lnb2RSQUUyQWdYcllVUEhQUnF0UlVEckdsRjlwRkRkcFZBdHAxQ2ZFTDhoZUxGSGhYcDVEbVVDb0p3cGlWbW03Mzc0cFpkZGczbG9qbTllK1N1VENEMjhvL1N1NGZvN3Z6WTNlUkZOZUExYVhFVEZFc1NDOHdYNWR4OTZvTjhZZExXU2ZpOFZjMFNOa1VOTlI2aVJVeWdnSWdxYU9SUllBMUdBSGhVMEg0UFJ1Z1Mwdm9ScWhWRDlwVkJOcDFDL0VOK0RYdXhWNnVjNWxBc0pNV2RxeEV3clBudnBzSDh4MFBFWG5mbXB0YjlDaVFvbGlNVW12aGp0Zk1QYnp0eUhSUnhSUStSUXN4RnFZRUtCUUNoZ1psQklEVVJoZVZUUi9BeEc2K1RRT2hPcUcwSjFTS2l1YzZodkl0K0RVZXhYNnVzNWxBK0E4cWFFY3UxbGw5eUt1V2dPOWJ1SDBoZjVhUGVrU2ZOb29rdG9RWk9vU0lKWWFMNEk5WEE5KzBqcFEzYzhoa1VjVVRPa1VLTVJhbHhDUVVBb1dHWlFNQTFBNGRpY1IvTTFDSzFYUUdzZVVmMFFxa2RDOVoxRHZSUDVYdlJpendyMTlnektod1RLblpLWWJYcUNjK0hSR29mejB0YlNNNVFPNnJ1R1dJVFgzdjdZZEhPNCs4RW5zWUE5YW9JVWFqQkNEVXNvQUNJS2toa1VSZ05RR0RhTTVtOFFXaitIMWoraU9pSlVsNFRxUElYNmg4U2VOTEYzcWIvblVFNEF5cDBTeXJlTEw3OEw4OUVjeXNkNkg0WjNEYkc0SkJhZ2YyUUdGYTVIRFpCQ2pVV29VUWsxZmtRQk1vTUNxQktGWDFPSDVyTWFyYU5EZFJCUlBSR3FUMEwxbmtKOUZNV2U5R0wvVXAvUG9hd0FsRDhsTWVPSzd4NDJ0eDg2ZE84ZWRGQjRzSjNEOHE1QnRDbG9jOUFtUVlWcnFQQlRxS0VJTlNpaGhvOG9PR1pROEZTZ3NGc0gzLzVCR3YzLzF3SE5ieFZhVDRmcUlhSzZJbFNuaE9vK2hmb3BvdDZVMk1QVTUzTW9Md0RsVHdubDNKRjY5M0RCNXVubjBFR2FtbmNOUXBPYlF3dUlxQ0NDV0ZSVWVQNWIzM1E1S3hXdG9hSlBvV1lpMUp3Uk5YcEVnVEZGWVZPQndtMnZVT0F2Ry8zZXZVTHpYWVhXZDRMcUlxTDZJbFNyaEdxZlVEOFI2bEdKdlV6OVBvZHlBMUFPbGNTY08xTHZIamEydHMvZ1FYYjA1TlU0T1lRbXRZUVdEMUV4QkxHZ3FPajgrWWI3SG5rS0MxYW80Rk9vaVFnMVpVUU5IbEZRVEZIQVZLQkFXeFVLN3YxQ3IyOVZhTjZyMERwUFVIMUVWR2VFYWphaStrK2h2b3FvUnlYMnNsRFB6NkRjQUpSREpaUjMvL25LZXpBdnpmbDNEd2Q4Z3loZHZuckp1KzdHeVlsb1VuTm80UkFWUWhBTGlRcE85S2dNYlF5NmxKV0tWYWpRVTZpQkNEVmpSSTBkVVVCTVViQVVVSWd0RzRYeXVxTFh2MnkwRGtXMDNnN1Zpa2YxRmxIZEV1b0Q4NzViSHVsRDg0SEhmdFQvTS9WWFJIMHFzYWVwNytkUWZnREtvNUtZZDNydVV2Ykd1TVB3N3FGMEl2clQ5ejg1TnpFUlRXWUpMUnFpSWdoaUlWR3g2WGZhSTdyZmRkMkRXS2dTQ3o2RkdvZFFJMGJVMEJHRndoUUZTZ0VGMTdKUThCNDBkRnpMUXV0UlJPdnVVTTE0VkhjUjFTK2hmaEI5OFpmNjZ3TzNQZHIvTS9WWFJMMXFZbDlUNzgrZy9BQXhpMnBRN3YzbFZlY0t6MTA2NE84ZWNpZWlWL1dvREZvd1JBVVF4QUtpSWhNOUpzTStVa3FkYjRqRm5rTk5FMUVEUnRUSUVZWEJGQVZKQm9YVnNsRElIblIwbk10QzY1TkY2KzlRN1hoVWZ4SFZjVVQ5SVAvcFBaL2R0Yjk4Mlo5Um4wWFVyeEo3bS9wL0R1VUlvRnpLb2R3NzFPOGVsbkVpbWlheWhCWUwwZUk3c1hpb3dJd2VzR2ViZ3hZMUZxZ3Y4aEpxbUlnYWoxQVRleFFDVXhRZ0dSUlFpNkpBUGF6bytCZEY2MVJFdFRCQk5lUlJEVVpVenhIMWhaNDRvUDY2Yk9kek0zOGVlNDFRejByc2NjcUJHWlFqZ0hLcGhQS3Y5TzdobVFmMSs2WTNObmRPMFFISnFrNUUwMEloV3ZnZ0ZnNFZsNmo0N0h5RFBoT05oU20rbUhPb1VRZzFYVVRONjFIelQxRm9aRkF3TFlMQzg2aWcrVmdVclZrVzFVU0g2aWlpV295b3BxUFlHNmR2ZW5oWFBmWW5WM3g2NXMrcDN5THFXNGs5VGprd2gvSUVVRDdseE95VDBydUhMbU0vZk9EZVBmUjNSR2RPUkwvaGlyTTRHUjVOWUFrdEVxSkZkMkxSVUdHSkNrOC96ODQzN056NDhGeGgra0l1b1NhSnFOa2lhbHFQR24rS3dpS0JnbWdSRkpaSEZjM1BJbWo5c3FnMk9sUlBIdFZqUkhWTmZHL29jVFRxTWZuUzQvODY4Ny9GbmlQVXZ4SjduZkpnUnN5U0JNcW5Fc3BCWGJSREdTcksyQVAzZlEvSHRyWmZTd2RqOUJrOVRZUkhrMWRDaXpTSEZqeUlCVU5GSlNxNjJ6NzdyV25SNnIvSG92UkZuRVBORVZHalJkU3dIalg4RklWRUFnWFFXQlNPelhrMFgyUFJPbVpSalhTb3JqeXF5NGpxTy9MOWNjZm5udjdxM2M4KytQMlovMDFpMzBYVXZ4SjduZkpnRHVVS29JektvUnpVUlR2NVp5NXQvOFdCZXZmUXZlaXo4d2R4M292ZmNBdE9Ra1NUbDBPTGcyaXhuVmdzVkZCaVJhZDNDMWEwRDMzdFJ6TUZHUXM0aFJvam9nYUxxRkU5YXZRcENvY0VDcDZ4S0JDYmVUUjNZOUI2WmxHdGRLaStQS3JQaU9vOHNoN1I5eDVZbjMzMDA5K2M2Ui94ZlpkQ2ZTeXg1eWtYWmxDdUFNcXBFc3JDVjE5MkIyYXA2SmwxRzcvempwK2NSTzk2RDMyaER4MkVPU3dub3EzZ2RKNUJCYXNUWmI0UVkvSG1VRk5FMUZ3ZU5haEhEVDVGb1pCQWdUTUdCV0NUUi9NNEJxMXJFdFhMQk5XWlIzWHFVWjFIdms5c2M3RExXU1BmZjRUNldHTFBVeTdNb1d3QmxGVTVsSWY2ZHN6c1phMG5UdjN1Z1hqM2NPekU2WXZvQU9UWkw3bTZQOGxDRStEUnBPWFFvaUJhWkNjV0NSV1NXTEhwbllJVnJLNVk4b1ZJeFV1b0lTSnFySWlhMDFCalQxRWdKRkRRREVXaHQxZWUrTUgvdFZUME8vWUN6ZXRRdEw1SlZEY1RWRytHNmpTaWVvK3NWK2h5VnMvM1h3cjFzOFRlcDN5WVFma0NLSzl5S0EvbEJiOS9BMmJxZWR2bkRzYm1zTGx6T3gvQXp1NUZiNzRkRHp5aVNjdWhSVUcweUU0c0VDb2lzVUx6NXh2OFY0SlM0YVpRTTNqVVVCRTFwa2ROM2FNZ1NLQ0FHWXFDYmxVb3pGZU5Yc2VxMFB3T1JldWNSUFV6UVRWbnFGNGpxdnRJdmZMMnhPV3NudlZnQ3ZXenhONm5mSmhER1JOUVhwVlFKdW9UbDl5N2g3WC9NcURTNHpLdS91Z2plT0FlVFZZT0xRaWl4UTE4Y1ZBQmlTKzBLLy94b2I1WWRiV1Nmb2Y5T1JVdG9TYUlxSms4YWtpUG1ybEhBWkJBd1RJRWhkdXlVVmp2TjNxZHkwYnpQUVN0ZHhMVlVZZnF6cU82OWFqdUkvV0x2NXcxMVdmV2d6blUxK0w3WHlnalpzU01TYURjeW9tWmFMS1h0Vzd0dkgrdDN6M2tQbEw2dWQrODZsQjlwQ1QybGFDNno4SCtqQXFXVUFORTFFZ1JOYU9oUnU1UjR5ZFFvQXhCZ2JZc0ZNanJpbDcvc3RDOEQwSHJua1QxMUtINjg2aDJQYXIvS0hjNXErZDdsRkJmUzh3QXlva1psRE9BY2l1SGNsRnlOOFgxbDdXKzhNcWZua1R4K28xam05czMwd3VYVi96NWJYakFIazFVQ1MzR0hGcllJQllHRlk4dk1HMTBWcWc2UVdaL1RzVktxUGdqYWlLUG10QlFBL2VvNFJNb1NJYWdJRnNHQ3QrRGdvNW5HV2oraDZEMVQ2SzY2bEFkR3FyZmlIckFLMTNPYW55ZnBsQi9TOHdCeW9vWmxEZUFzaXVIOGxGWGJPVXVhKzAyaUZldjVidUgwbzF2VjN6d2ZqeGdqeVlwaHhZQjBhSTZzU0NvYU1RWEY1MXZvRUlsVlBnUk5ZOUhEZWhSOC9hbzJRRUZ5QkFVWUl1Z29EM282RGdYUWVzd0JOVUJvcnFhb0ZvMFZNY2U5WUYzN3NzLzNMV2VvOHRaUGQrcmhQcGJZaFpRWHN5Z3ZBR1VYem1Vai9LYXQ5NkorVHF4bnQ4enZiRzU4M0o0c1QxOXBLUmRqdzdXbzBuS29VVkF0S2hPTEFncW1saGNkbitEUDk5QVJVcW84RDFxbklpYXoxRFQ5cWpSQVFYSEVCUmNZMUdvSGpaMDNJdWdOYWxGOVlDb3ZqcFVqeDdWc2tmOTRObm1rTHFjMWNSK0pkVG40ck9BOG1KT3pCdEErWlZEK1NqWGZ2eXIyUlBUYTNuSDlMR3Q3ZXZveFVyTmpXODBRU1cwQ0hOb01SMWZDRUxGSXJHdzR2T1VxRUFKRlh4RVRlTlIweGxxMkI0MU9LREFxRVZCdFFnSzBzT001bUFzV3A5YVZCZUk2cXhEZFdtb25qM3FCNjkwT2FzWGV6YWlQcGVZQ1pRYk15aDNBR1ZZRHVXa0ZKN1crcnExZXZkUStraEpsNkRSUVhvME9UazArWWdXMDRtRlFNVWl2cWowYytQemxLZzRDUlc4UnczalVjTjUxS3pZMklDQ29oWUYxRmdVbkVjRnpjZFl0RTYxcUQ0UTFWdUhhdE5RWFh2VUY2Ym1jbGJqZXphRmVqMW1BdVhHakpnNUNaUmpPWlNUY3FBK1dycmd4S25ud1l1Y1dzV1grdERrejZHRkRId1JVS0ZJTEtpN0gzejYrNkp2T2ZzTkxFeEN4UjVSczNqVWJJYWF0RWRORFNna2FsQXdqVUZoZVZUUi9JeEI2MVdMYW1RTzFWdUg2dE5RWFh2VUY2Ym1jbFl2OW01RS9TNCtGNFN5WXdibFQwQTVsa001S2NXUGxwNS8rbWNuMGJ6LzQ5am16cVgwSXVYa3hUZmlBWG8wTVNVMCtYTm9FWjFZQUZRa0VndktYMUwzaGE4OGhVVkpxTmc5YWhTUEdzMVFnL2Fvb1FHRlF3MEtwREVvSUk4Nm1xY3hhTjFxVUowZ3Fyc08xYW1oK3Zhb1ArUTYxM3ZxWWVvekwvWnVSUDB1TVJ0aWRzeWgvQUdVWlRtVWw1TDlhR2xyNTgvVzV0MUQ3aExXbXUrSnBrbkpvVWxIdEloT0xBQXFFaW9vWFhtbDR0U2p4L1hQVkpRUkZYcEVUZUpSa3hscVRteGtRTUZRZzRKb0tBckZaaGJOMjFDMGZqV29YaERWWDRkcVZhaStQZW9QdWUyZWIrL2E1cEM3bk5XTC9SdFIzNHZQQnNxUEdaUS9nUElzaC9KUzlNNko4dmE4TlhxY3hzYm05by81UmU3MGI0SG80RHlhbEJ5YTlEbTBnSTVmZUtIaUVDb211L250cjYvNUFoWWpvVUwzcUVFOGFqQkRUZG1qSmc0b0VHcFFBQTFGUWRnd21yK2hhQjFyVU4zTW9mcnJVTDBhcW5PUCtzUmZ6cXFOZ25vdG9oNzJxTzhsWmdUbHlBektvWUR5TElmeVVxNi84MnZyLzlIU00wK2UvbVY2Y2JLdmQwWFQ0amx4NGFrNEpCYVN2L2xOSHk5Uk1VWlU1QkUxaDBmTkpkU1FQV3BnUUdGUWc4Sm5DQXJBSm8vbWNTaGF5eEtxRzBSMTJLRzZOVlRyWHV3VDlhVDEzd2R2K3lyMld4UjdtTVMrbDVnUmxDTXpLSWNBWlZvT1phYjgyaXMvZ0xsNzNocDh6OE94emUzWDg0dGJ6ZmtHbW14RWkrZjRSYWZDRUNxaWVQTWJGV01VQ3p5aXB2Q29xUXcxWTQrYU42QWdxRUdoTXdRRlgxT1A1clFXcldjTnFoOEV0VWgxYTZqZVBlb1hlK2V1WjV0UnZ4SHFaWS82WDN4T1VJN01vQndDbEdzNWxKdVMrMmhwWTJ2N3NYWFlISkxuRy83ZzhydndvRHlhakJ5YTdEbTBjSTVmY0tHaUVDcWltWnZmdW4rWEN0R2o0bzZvS1R4cUtxRkc3RkhUQmhRQU5TaHdhbEhRTmVQUS9OYWlkYTFCZFRTSDZyRkQ5V3VvNWczMWkxM08rbGZ2KzN6L3o5UjNFZld5Ui8wdk1TdGlsc3loUEFvbzEzSW9OMlh0UDFyS25XOVl4UmY3MEdUUG9VVno0b0pUVVZBQmliLzVqWW93aW9VZFVVTjQxRXlHbWhBYkZsRHpsMURRMUtLQTJ3L2YrZUhpNk9mdUI1cm5XclMrSlZSSENPcVM2dGRRM1h1eForeHB5UHFiTS9WY0N2V3pSemtRczRMeVpBYmxFYUJzeTZIc2xOeEhTL3Y2cktYYytRWXBQVEtESmlHSEpoblJvamwrc2FrZ2hJcEhQOXR1ZnRQMTFsU0FVU3pzaUpyQm8yWVNhc0FlTld0QWpWOUNBVk9MZ20ydlVMZ3ZHLzNldlVMelhZdld1WVRxYVE3VlpZZnEyRkR0bTlnejhYSlcvUm4xWGtROTdWRU9pTStMbUNWelloWWxVTDdsVUg1SzlpdEU5L014M3JsSGRQLzZ2Lzh3SG94SGs1QkRrenlIRnN6eEN5MVVERUxGNDI5K3E3bFNJaFoxUkkzZ1VSTVphajVzMUlBYXZnYUZTdzBLdEZXakFOOHI5SHBXamVhOUZxMTFDZFhWSEtoUHFtTkQ5ZS81dnZHWHMrcnFKZjBaOVY5RVBlMVJEa2pNRE1xVkdaUkxBZVZiRHVXbjZMTDY5R084ZDU3WXQ4MmhlOXR5aGw2VUhPVHpEVlE0NG05KysrS2o1WnZmZkVFVGFnS1Bta2lvOFhyVXBBRTFld21GU2cwS3NsV2hvTjV2OURwWGhlYS9CcTEzQ2RYVkhLclBEdFd6VVAxN3ZtL3VlZWo3dTlhSC8zenVpZjdQcVA4STliVkhlUkF6ZzNKbEJ1VlNRUG1XUS9rcHVpaG1MYzg3SE52Y2ZvaGVrQnlFOHcxVUNFSkZJM2J6bTY2V29NTHpmREduVUJNWWFpQkRUWWNOR2xDamwxQ2cxS0FBV3dVSzVYVkRyM3NWYUIxcTBMcVhVSDNOZ1RxbGVqYlVCNTcxamJMRE5vZVBmUEx4Nlo5VEgwYlUxeDdsZ2ZqY29GeVpRYmtFS09OeVluNmF0VHp2a0h2WVh1bDVTblR3T1RTNWlCYkw4WXRNUlNCVU5ETGs1amNyMkJRcWZvK2FSNmpoZXRTY0FUVjVDWVZKRFFxdlphSVFYbmQwSE10R2ExR0QxajZINm1zTzFXbUg2bHFvRHp6ZlA2Ly9yMmQzMVl2dnUrV1I2WjlSSDBiVTF4N2xnZmpjRU1xV0daUk5BZVZjRHVXb1hIejVYWmpCc2kvbkhYSW5vNS85a3F2eElEdzYrQnlhM0RtMFNFNWNZQ29DS2hnWmV2T2JMMlJDeFcrb2NRdzFHelptUUExZVFpRlNnMEpybVNoNER3bzZubVdpOWFoQjYxOUNkVFlINnBYcTJsQS9HTjgvdWxwUXZmak9heCtZL2huMUlhSCs5aWdYWW5aUXZzeWdmQW9vNTNJb1IwV2YwcXpWZVlmY2wvczgvM1UzNEVGNGRQQTVOTGx6YUpHY3VNQlVCRlFzNG05K08zdi85N0RvakM5aVFvWHZVZE1ZYWpac3lvQ2FPNGNDcEFZRjFySlEyQjVVZEh6TFF1dFNnK29naCtwc0R0VnJoMnBicUI4ODY2Ry8rWWN2N3FvWDllaHUzMXZVanhIMXQwZTVJRDQ3S0Y5bVVENEZsSE01bEtPaXEwTFg2cnpEeHRiMjIraUZ5SDk0NjUxNEVCNGRmQTVON2h4YUpNY3ZMaTIrVUxISWtKdmZmTEVTS25xUG1rYW95YkFoQTJyc0VncVBFZ3FxWmFHQVBlam9PSmVGMXFlRTZxQ0U2bTBPMUMzVnQ2R2VNTlpEL3RIZHZ1ZGlMeExxYjQ5eVFYeCtTTXlYR1pSUGdMSXVoWExVUE8vM3JzY3NsajAvNzVDN00vb3RwOC9oQVhoMDhDazBxWWdXYVNJdUxDMitVTEdJM2Z4Vzh5VWpWcWdwVlBTR21zVlFrMkV6QnRUVU9SUWNKUlJReTBDaGV0alFjUzhEclZNSjFVTU8xZHNjcUZ1cWIwTjlZYXlINkY0SG9YNGsxT01lWlVQTWtKZ3hjeWlqQXNxN0hNcFNXYXZ6RHQxdTlCaTlFTG42bzQvZ0FSZzY2QnlhMURtME9FNWNXRnA4S2hMUno2KzkrYzJLTklVSzNxTm1FV3F3SGpXalF3MWRRcUZSUXVHMEtBclN3NHFPZjFHMFRqV29KbktvN3VaQTdWS2RDL1dGcHo2aWV4ME05V1ZFZmU1UlBzUU1vWnlaRVRNS1VON2xVSjVLL3J6REhqNW5TVjhMU2kvQzdNdVZTclE0VGx4WVdud3FFaGx5ODVzdlVrTEY3bEd6Q0RVWE5tRkF6WnhEWVZGQ3diUW9DdEREanVaaFViUmVKVlFYT1ZSM2M2QitxYzROOVlaUkgzM21nYWQ3MHU1MU1OU1hFZlc1Ui9rZ1BrTW9aMlpRVGdXVWR6bVVwMUk2NzdEeGdxdisrMGw4cjNZYzlDdVZhTkdGaWtTRzNQem1pNVJRc1J0cUVrUE5oVTNvVUNPWFVGamtVQ0F0aW9MenFLRDVXQlN0V3duVlJnN1Yzd3lxM3c3VnVsQi9HUFhSZzEvNzBhNzFwTC9YUWFndkNmVzZvWHdRbnlPVU16TW9wd0JsWGdybHFYbnVSUi9DVEpabm50aCs3aVMrVnp2Mjhrb2xta3hFaXpQaEYxUm8wWVdLUk41MTNZTjlFZFk4Nk1zWGFVU0Y3bEdUQ0RVVk5tQkFUWnhESVZGQ1liUUlDc3lqaHVabEViUnVKVlFmT1ZSL2M2Q09xZDZGK3NOVFAra3BET3JMcTkyOURvWjZNNkplOXlnallwWlEzc3lnckFvbzkxSW9UODNMTHJrVk03bTN1ZjI2UGZsb2FTK3ZWS0xKbkVPTDRzUUZwVVduNGpCMlRiVXVuNk1pTTdGQUl5cHlqNXBFcUttdytRSnE0aHdLaVJ3S29rVlFVQjVWTkQrTG9QVXJvUnJKb1JxY0FYVk05VzZvUjR6NjZUKzk1N083Nmt0L3I0T2gvb3lvMXozS2laZ2xsRGN6S0s4Q3lyMGN5bFRKZnIvRDV2YmY3c25tY0d4cit6cDZBVks2VW9rT05vY21jdzR0aWhNWGxCYWRpa1AwOCsxa3RPN0dwQ0l6c1VBaktuSkR6V0dvcWJENUhHcmVIQXFIRWdxaHNTZ2dqenFhcDdGby9VcW9UbktvRG1kUUhYZW81b1g2eEtpZjdIc2Q0cjBPUXYwWlViOTdsQlBpczRUeVprYk1La0M1bDBPNUtybVQwc2MyZDI3Zm84MWg1K3pjTDU5WTl5dVZhTEdGaWtQMjZtUTBOWWRRTTJIakJkUzhPUlFPT1JSQVkxRXdOdWZSZkkxRjYxaEN0WkpDZFRnSDZwbnFYcWhQUFArOURySFhxRDhKOWJ5aG5CQ2ZKNVEzTXlpdkFzcTlITXBWVVQ0bHIxamEzUDd4VDd6NXpmK3ZTWVN2YnVpV2JIb0JjdlBaYitBTE4zU3dPVFNaYzJoUkhMK1l0TmhDeFNHM2RNZGptNE91Q0tBQ003RkFQU3B1ajVwRHFKbXc2UUpxM2hRS2hSSUtuN0VvRlBmS2Q1OHFvMzl2TDlHY2pVSHJXRUwxa2tPMU9BUHFtZXBlcUU4OGZZZTA5YVo2Ty9ZYzlXaEVQZTlSVnZnOEVjcWNLY3FyZ0hJdmgzTFYvUHh2dlJkeldTNDhzZjJNU1lTdmJteXMyd1AzYUZFbTRrTFNZbE5SR0g5bk5CV1hpWVVaVVhFYmFneER6WVJONTFEVDVsQW81RkR3akVWaHVFb1Uva1BSejEwbG1yZXhhRDF6cUY1eXFCNW5RRDFUM1J2cUYvT3h6M3h6MXphSGVLK0RVSjlHMVBNZTVVWE1GTXFkS2NvclFObVhRcmxxY25kS1g3QzFzeldKOE5XTTR5ODY4MVAwaStYbmZ2TXFmTUVlSFd3S1RTS2lSWm1JQzBtTFRVVmgzdVkrMTZUaU1yRXdJeXB1UTAwaDFFZzlhanFIbWphRkFxR0VRbWNNQ3NKVm9JQmZGdnA5cTBEek53YXRad25WVFFyVjR4eW9hYXAvb1g0eHVYc2RoUG8wb3A3M0tDOWlwbER1ektETUNpai9jaWhiNVRWdnZST3p1YmU1ODhjclBlOXcvQVU3ejhaZjNQblZWM3dBWDdCSEI1cENremlIRnNPSkMwbUxUVVZoL3VodlB0VVhuejdmcE9JeXNUQWpLbTVEVFNIVVJOaHNBVFZ0Q29WQkRnWE9HQlNBeTBaaHZpcjArNWVONW5FTVd0Y2NxcHNjcXNrWlVOZFUvMEw5WWg3SzNPc2cxS2NSOWJ4SGVTRStVeWgzWmxCdUJaUi9PWlN0OHBkWG5jdmNLYjNpeDJoY2NPTFU4K2dYeThtTGI4UVhiT2dnYzJnUzU5QmlPSDRSYVpHRmlrTDhZN3B2K01UaldGd21GcVpIaGUxUlV3ZzFFVGFiUTgyYVEyR1FRMkV6Qm9YZk1sR0FyeHE5am1XaWVSeUQxaldINmlhSDZuSUcxRFhWdjFDL2VMbDdIWVI2TmFMZU41UVg0bk9GY21jRzVWWkErWmREK1NxNklDaDl4ZEwyUXl2ZEhITGZHLzJLUDc4Tlg3Q2hnOHloU1p4RGkrSDRSYVJGRmlvS3FYMU1OeFdsUjBWdHFDRU1OUkUybTBQTm1rSkJrRU5CTXdZRjM3SlFhTzgxZWwzTFF2TTVCcTF2RHRWUEN0WGxES3JyRHZXQVVOK1lTLzd1TTd2cVQ3clhRYWhmSStwOVEza2hQbGNvZDJaUWJnV1Vmem1VcjZKenZ2dDJ4ZEt4eloxTDZSZEw2WHVqNlNCemFCTG4wR0k0ZmhGcGtZV0tRajV3MjZOOTRZbCtGaFdXVUZGNlZOU0dta0dvZWJEUkFtcldGQXFCSEFxWk1TajBsb0dDZXIvUTYxc0dtczh4YUgxenFINVNxQzduUUgxVEh3ajFqZm1yOTMxK1YvMUo5em9JOVd0RXZlOVJadmhja1pnN015aTNBc3EvSE1wWGszem4wRm5wNXBDN08vcU5mMzhQdmxoREI1bERremlIRm1NaUxpQXRNaFdEc2UrTTFwMllWRlNHaXRLam9qYlVERUxOZzAzbVVLUG1VQWprVU1nTVJZRzNEQlRRKzQxZTV6TFF2QTVGNjV0RDlaTkQ5VGtENnB2NlFLaHZqSCswRGZVZTlXdEV2ZTlSYnNSc29meVpvdHdDbElFcGxLOG05NTNTSy8zaW4yNXpPRU8vVkJTbTlHSU5IV1FPVGVBY1dveUp1SUMweUZRTXhtN1AxM0ZSVVJrcVNvK0sybEF6Q0RVUE5wbERUWnBESVpCQ0FUTUdoZDJpS0pqWEJiM2VSZEc4amtIcm5FTTFsRUwxT1FQcW0vcEFxRy9NTmJjKy9lNWVQUjU3ai9vMW90NzNLRGRpdGxEK3pLRHNDaWdEVXloZnpRdCsvd2JNWjNubUtoL0ExLzJDNU4zUjEzNzhxL2hpRFIxa0NrMGVvb1dZaUF0SWkwekZJUHJaVm5UNmVJbUt5c1NDOUtpZ1BXb0dvZWJCSm5Pb1NWT28rWE1vWElhaW9Gc1VCZks2b2RlOUtKcmZvV2lkYzZpT1VxZytaMEI5VXg4WTZoM1JUYmZXcDJ0N3I0UEUzQUtVZ3ltVXJ5YjNBTDZWM3V2US9ZTDEyUnhvRVp5NGdMVElWQXlpRTlCV2RIZDg3Z2tzS2hNTDBxT0NOdFFFaHBvSG04eWhKazJoNXMraGNCbUtRbTRSRk1UcmlsNy9JbWgraDZKMXpxRTZTcUg2bkFNMVRyMGcxRDl5MXhlK3UydDlTdmM2Q1BWc1JCbGdLRGZFWnd2bHp3ektyNEJ5TUljeVZuTDNPbXlzOGl0RHUxOXdKRGFIZjd6ejhXblJQZkRZajdDZ2hJclJvNEkyMUFSQ1RZUE5GVkNUcGxEenAxQ3dERVVCdHdnSzRIVkh4N0VJbXVlaGFMMVRxSTV5cUVablFKMVRQd2oxai9qTHplbGVCNkcralNnRERPV0crR3loL0psQitSVlFEdVpReHNxbDc3NGI4L204N2I5b20wUEhMeDR0cmxBeGlEM1VTemZCVVRFWktrYVBDdHBRRXdnMURUYVhRODJaUTgyZlFxRXlGSVhiV0JTOEJ3VWR6MWcwejBQUmV1ZFFMYVZRbmM2QU9xZCtFT29mWTV2RCsyLzlDdllnOVcxRUdXQW9OOFRuQytYUERNcXZnSEl3aHpKV2RJNDBmU1BjOXZiYWJRNTBjRGswZVhOb0VSeS9lTFM0UXNVZ3VqUk9CYWZIWjFBeEdTcEdqNHJaVUJNSU5RMDJsMFBObVVKTm4wT2hNaFNGMjFnVXVnY0ZIYzlZTk05RDBYcm5VRDJsVUozT2dEcW5maERxSDZNcmxkU3J1bktKZXBENk5xSU04Q2c3Zkw0SVpkQVU1VmRBT1poRE9TdTVHK0UyTm5jKzNEYUhqbDg0V2x3cUFtT1B6VGg5MDhOWVRJYUswYU5pTnRRRVFrMkR6ZVZRYzZaUTArZFFxQXhCd1RZV0JlNUJROGMxRnMzM0VMVGVPVlJQS1ZTbk02RE9xUitFK3NmWWwzSHAreDJvQjZsdkk4b0FqL0xENTR0UUJrMVJmZ1dVZ3ptVXM2S1Q5Smw3SGM2MnphSGpGNDRXbDRwQTduMzRCMzJ4eVVjLy9VMHNKa1BGNkZFeEcyb0NvYWJCNW5Lb09WT282Vk1vVUlhaVVCdUx3dmFnb2VNYWkrWjdLRnIzRktxbkZLclRHVkRuMUE5Qy9XUHNTMyswU1ZBUFV0OUdsQU1lNVlmUEY2RU1tcUw4Q2lnSGN5aG5KWHVYOU5iT0UwZCtjNGdMUjR0TFJTRCtzUm1mZmZEN1dFeUdpdEZRSVh2VUJFSk5nODNsVUhPbVVOT25VSmdNUmFFMkJnWHRvcjczMVA5ZFJQL2VvdWo0eHFENUhvcldQWVhxS1lYcWRFNm9jK29IUXowazcvN3c0YmdSam5Jd2gzTFdwRDlXV3VFak5QUjFjL1JMNWJCc0R1KzkrY3Q5c1pXK3cwR29HQTBWc3FIaU43RmhldFJZRGpWbkNqVjlDb1hKVUJScVkxRElqa1diUUFuOW5MSG8rTWFpT1IrQzFqMkhhaXFGYW5VRzFEcjFoRkFmaWI4Umpub3k5aXloSFBBb1AyTEdVQTVOVVg0QnlzSVV5bG56U3krN0JqTmFWclk1NU82UVBpeWJ3MTlmODRXKzBQUTJsUXJKaTRYb1VTRWJLbjZoWnNHbWNxZ3BjNmpoVXloTWhxQXdHNE1DZGl3Sy9pSG9aNDVCeHprR3pmc1F0TzQ1VkZNcFZLOHpvTjZwTDRUNlNIUUpxMjBPWDN6MHFiaytwTDZOS0FjOHlvK1lNWlJETXlqREFzckNGTXBaazN1RVJ0c2NBbHBjS2dKNXd4Vm4rMElyZlllRHhFTDBxSkFORmI5UXMyQlRPZFNVS2RUc09SUW1RMUNZalVIaE9oUUYvVmowODRlaTR4eUQ1bjBJV3ZjY3Fxc1VxdGNaVU8vVUYwSjlKQisvNTl1N3Rqbm9DNENvRjZsM1Bjb0JqL0lqWmd6bDBBektzSUN5TUlWeTFyVE5nUlpnSWk0Y0xTNFZnZjhDa1EvZDhSZ1dra2VGYUtpUURSVy9VTE5nVXpuVWxDblU3RGtVSmtOUW1JMUI0VG9VaGZ4WTlQT0hvdU1jZytaOUNGcjNIS3FyRktyWEdWRHYxQmRDZlNUK0crSDBKZnZVaTlTN0VlV0JvZnlJR1VNNU5JTXlMS0FzVEtHY05ZZDJjNkJKUTdRQUUzSGhhSEdwQ1B4ak16N3grZTlnRVJrcVFvOEsyVkR4Q3pVTE5wVkRUWmxDelo1RFlUSUVoZGtZRks1RFVNQXZpbjdQVUhTc1E5RzhEMFZybjBKMWxVTDFPZ1BxbmZwQ3FJL2txTjRsVFRscjl1WEpyR3V6T2REa08zN1JoQmFXaXNBL05rTkZSMFZrcUFnOUttUkR4Uy9VTE5oVURqVmxDalY3Q29YSVVCUm1RMUdvRGtIQnZpejArNGFnNHgySzVuMG9XdjhVcXFzVXF0Y1pVTy9VRjBKOVpLeG5qOUpkMHBTenBtME9HWDdSaEJhV2ltQlpWeW9KRmJHaDRoZHFGbXdxaDVveWhabzloVUprS0Fxem9TaFVoNkJRWHhiNmZVUFE4WTVCY3o4RXJYOEsxVlVLMWVzTXFIZnFDNkUrTXZhTmNLdTZTNXJ5UTN6R1VBN05vQndMS0E5VEtHZE4yeHd5L0tJSkxTd1Z3Ykt1VkJJcVlrUEZMOVFzMkZRT05XVUtOWHNLaGNnUUZHSmpVS2dPUWFHK0xQVDdocURqSFlQbWZ3aGEveFNxcXhTcTF4bFE3OVFYUW4xazdIRTMrbVk0NmtYcTM0anl3RkIraU04WXlxRVpsR01CNVdFSzVheHBtME9HWHpTaGhhVWlxUDJDSDZFaTlLaUlEUlcvVUxOZ1V6blVsQ25VN0NrVUlrTlFpSTFCb1ZxTEFuM1o2UGZXb3VNZGcrWi9DRnIvRktxckZLclhHVkR2MUJkQ2ZXVCs1aCsrdUt1K1ZmOVNMMUwvUnBRSGh2SkRmTVpRRHMyZ0hBc29EMU1vWjgwTC8vQW16R2pabDgxQmR5clNDeFU2dUJTYXREazArWTVmTktHRnBTTFF4MGtxc3ZmZDhnZ1drRWRGNkZFUkd5cCtvV2JCcG5Lb0tWT28yVk1vUklhZ0VCdURRclVXaGZteTBlK3RSY2M3QnMzL0VMVCtLVlJYS1ZTdk02RGVxUytFK3NqNHB5aFRMMUwvUnBRSGh2SkRmTVpRRHMyZ0hBc29EMU1vWjgzYWJRNjVyd21sZzB1aFNadERrKy80UlJOYTJGZ0FRNTZwSkZTRUhoV3hvZUlYYWhac0tvZWFNb1dhUFlWQ1pBZ0tzVEVvVkd0Um1DOGIvZDVhZEx4ajBQd1BRZXVmUW5XVlF2VTZBK3FkK2tLb2o0eE9SRnZ2cXQ5akwxTC9SakVQUE1vUDhSbERPVFNEY2l5Z1BFeWhuRFZ0Yzhqd2l5YTBzTEVBOUkxdlZtQzZwSlVLeUlzRkdGRVJHeXArb1diQnBuS29LVk9vMlZNb1JJYWdFQnVEUXJVV2hmbXkwZSt0UmNjN0JzMy9FTFQrS1ZSWEtWU3ZNNkRlcVMrRStzajRyd3RkeFYzU2xCL2lNNFp5YUFibFdFQjVtRUk1YTlybWtPRVhUV2hoWXdIb3BqY3JzQzg5L3E5WVFGNHN3SWlLMkZEeEN6VUxOcFZEVFpsQ3paNUNJVElFaGRnWUZLcTFLTXlYalg1dkxUcmVNV2oraDZEMVQ2RzZTcUY2blFIMVRuMGgxRWRHWHhGcXZYdlhmZCtkNjBYcTN5am1nVWY1SVQ1aktJZG1VSTRGbEljcGxMT21iUTRaZnRHRUZqWVdnSDF1cWNkbjZKK3BnTHhZZ0JFVnNhSGlGMm9XYkNxSG1qS0ZtajJGUW1RSUNyRXhLRlNIb0VCZkp2cWR0ZWg0eDZENUg0TFdQNFhxS29YcWRRYlVPL1dGVUIrWmV4NzYvcTV0RHZwSU9QWWk5VzhVODhDai9CQ2ZNWlJETXlqSEFzckRGTXBaMHphSERMOW9RZ3NiQytDdDd6M1hGNWN1aTlNL1V3RjVzUUFqS21KRHhTL1VMTmhVRGpWbENqVjdDb1hJVUJSa1ExR29Ea0dCdml6MCs0YWc0eDJENW40SVd2OFVxcXNVcXRjWlVPL1VGMEo5WkI1MGo3MjU3bzdINW5xUitqZUtlZUJSZm9qUEdNcWhHWlJqQWVWaEN1V3NhWnREaGw4MG9ZV05CZUFmdUtkL3BnTHlZZ0ZHVk1TR2lsK29XYkNwSEdyS0ZHcjJGQXFSb1NqSWhxSlFIWUpDZlZubzl3MUJ4enNHemYwUXRQNHBWRmNwVks4em9ONnBMNFQ2eUtqZi91RHl1M2JWdjFmZjhzaGNMMUwvUmpFUFBNb1A4UmxET1RTRGNpeWdQRXlobkRWSGUzTVFXb0FKdjJoQ0Mrc1gzejl3N3dPM1Bkci9HUldRRndzd29pSTJWUHhDellKTjVWQlRwbEN6NTFDUURFRkJOaFNGNmxBVTdJdWkzek1VSGU5UU5POUQwZHFuVUYybFVMM09nSHFudmhEcUk2Tit5OTBsVGYwYitUeUlLRC9FWnd6bDBBektzSUR5TUlWeTF1ekw1dEQ5OE12aUx6UEwyaHlFSm00T0xjQ0VYelNoaGZXTGYvZUQ3c21Pbi8xVy8yZFVRRjRzd0lpSzJGRHhDelVMTnBWRFRabEN6WjVEUVRJRWhka1lGS3hEVUxndmluN1BFSFNjWTlDOEQwVnJuMEoxbFVMMU9nUHFuZnBDcUkrTStrMTNSNnQvNlM1cDZ0L0k1MEZFK1NFK1l5aUhabENHQlpTRktaU3pwbTBPdEFBVGZ0R0VGdFl2L2kzdVVqamQ3NkEvb3dLS1loRjZWTVNHaWwrb1diQ3BIR3JLRkdyMkhBcVNJU2pNeHFCd0hZb0NmaXo2K1VQUmNZNUI4ejRFclhzTzFWVUsxZXNNcUhmcUM2RStNdXEzZDE3N3dLNzY5MC8vOWpOenZVaTk2L2tzSUpRZk1XTW9oMlpRaGdXVWhTbVVzNlp0RHJRQUUzSGhhSEg5NHAvNTJOTTMwZWhuNjgrb2lLSlloQjRWc2FIaUYyb1diQ3FIbWpLRm1qMkh3bVFJQ3JNeEtGekhvS0FmaW43dUdIU2NZOUM4RDBIcm5rTjFsVUwxT2dQcW5mcENxSStNK3UzMFRRL3Zxbi90b1ptK0YyUGZSajRMQ09WSHpCaktvUmt4dndCbFlRcmxyR21iQXkzQVJGdzRXbHkvK0hydEtpdzltOFgraklvbzhnVVlVUkViS242aFpzR21DcWd4VTZqaFV5aE1ocUF3RzRzQ2Rnd0svRnIwODhhZzR4dUw1bjBJV3ZjY3Fxa1VxdFVaVU8vVUYwSjlaTlJ2SDd6dHE3djJGN3lIdi82djB6Nmt2bzE4RmhES2o1Z3hsRU5UbEYrQXNqQ0ZjdGEwellFV1lTSXVIQzJ1WDN3OWhWVkY5Yll6OTAzL2pJb29zZ0lrVk1RZU5ZQlF3MkJqT2RTWUtkVHdLUlFtUTFHZ2pVRWh1d2dLL3hUNjl4ZEJ4emNXemZrUXRPNHBWRTg1Vktzem9OYXBKNFI2eUtqZmJ2b1UzeVZOZlJ2NUxDQ1VIekZqS0llbUtMOEN5c0VjeWxuVE5nZGFCTWN2SEMydVgzeDc0TjdPalE5UC80eUtLTElDVEtGQ050UUFRZzJEamVWUVk2WlEwNmRRbUF4RmdUWUdoZXd5MEdaZzZQKy9ESFI4WTlCOEQwWHJua0wxbEVKMU9nUHFuUHJCVUE4WjlWcnFMbW5xMjhobkFhSDg4UGtpbEVGVGxGOEI1V0FPNWF4cG13TXRndU1YamhiWEZ0NS96YUFlb1dGL1RrVVVXUUdtVUNFYmFnQ2hwc0htY3FnNVU2anBjeWhRaHFCUUc0dUM5cUNoNHhxTDVuc29Xdk1VcXFjVXF0TVpVT2ZVRDBMOTQ2blhVdDhsVFgwYldjK25VSDc0ZkJIS29DbktyNEJ5TUlkeTFyVE5nUmJCOFF0SGl5dGErTnZ2ZmZwdkhIcjRuaFVFRlZGa0JaaENoV3lvQ1lTYUJwdkxvZVpNb2FiUG9VQVpna0p0RVJTNEJ3a2QwMWcwMzBQUWV1ZFFQYVZRbmM2QU9xZCtFT29mWTcyVytpNXA2dHZJZWo2RnNzUG5pMUFHVFZGK0JaU0RPWlN6WnUwMmg3ZWNQb2N2MU5BQnB0RGt6YUZGY1B6QzBlS0tGdjc2Tzc4Mkxhb3ZmT1dwYVVGUUVVVldnQ2xVeklhYVFLaHBzTGtjYXM0VWF2b2NDcFdoS05qR29zQTlLT2g0eHFKNUhvcldPNGZxS1lYcWRBYlVPZldEVVA4WTZ6WDFzL1d4L3k1cDZ0dkllajRsNW9iNGZLSDhtVUg1RlZBTzVsREdtclhiSEM1NTE5MzRRZzBkWUFwTjNoeGFCTWN2SGkydWFPRjFua0VGcGZNT3ZpQ29pQ0lyd0JRcVprTk5JTlEwMkZ3T05XY09OWDRLaGNwUUZHNkxvT0JkZDNRY2k2QjVIb3JXTzRkcUtZWHFkQWJVT2ZXRFVQOFkzMit2LzY5UFB3TEgvb3o2TnZKOUgxRnVpTThYeXA4WmxGOEI1V0FPWmF4cG13TXRndU1YVDJpQnRmaTZRa2tGcFN1V1ltRlFJVVcrT0NNcVprTk5JTlEwUFdvd2h4bzBoUm8vaDRKbEtBcTRSVkFBcnpNNmhrWFFIQTlGYTUxQ2RaUkROVG9EYXB6NlFhaC9qTzgzZTRTR2JvaXpQNk9laldMZmU1UWI0ck9GOG1jRzVWZEFPWmhER1d2YTVrQ0w0UGpGRTFwZ0xiN3VxRlJCL2ZVMVg1Z3JEQ3FreUJkblJNWHNVU01JTlE0Mm1FTU5ta0xObjBQQk1oUUYzQ0lvZ05jVnZmNUYwUHdPUmV1Y1EzV1VRdlU1ZytxN1E3MGcxRHZHOXhzOVFvTjYxb3M5SDFGdWlNOFd5cDhabEY4QjVXQUs1YXZYTmdlaGhaandpeWUwd0ZwOEZaTzg5K1l2enhVR0ZWUGtpNU5RUVJ0cUJLSEd3U1p6cUVsVHFQbHpLRnlHb3BCYkZBWHh1cUhYdlNpYTM2Rm9uWE9vamxLb1BtZEFmVk1mQ1BXTjUzdnRiLzdoaTd2cVpmMkZqM3FWeEo2UEtEZGl0bEQrektEc0NpZ0hVeWhmdlVPOU9RaE40QnhhaUltNGdMVEk5ejN5VkY5TTRpOWpOVlJNa1M5T1FnVnRxQm1FbWdlYnpLRW16YUVBeUtHQUdZcUNibEVVeU91Q1h1K2lhRjdIb0RWT29mckpvZnFjQWZWTmZTRFVOeWIybXA3SXFsNytvNy81RlBZcWlUMGZVVzdFYktIOG1VSFpGVkFHcGxDK2VtMXpFRm9JeHk4Z0xmS252dmk5dnBqRW5zYnFVVEZGc1VBakttcER6U0RVUE5oa0FUVnFDb1ZBRGdYTVVCUjJ5MERCdk4vb2RTNER6ZXRRdEw0NVZEODVWSnN6b0w2cEQ0VDZ4c1JlMDFWSzFzL1VxeVQyZkVTNTRYTkZLSHVtS0xjQ3lyOGN5bGV2YlE1Q2krSDRCYVJGOWw5TXJvMGlGZ1lWVXhRTE5LS2lOdFFNaGhvSUc4MmhSazJoRU1paGtCbURBbTlaS0tUM0E3MjJaYUQ1SElQV040ZnFKNFhxY2c3VU52V0FVTitZMkd2NkZqanJaejFDZy9vMWlqMGZVVzc0WEJIS25pbktyWUR5TDRmeTFkdW56V0g3dGZRTDVTQnVEdGZlL25ReDZTWWFLZzRxcUNnV3FVZEY3VkZEQ0RVUU5wcER6WnBEUVpCRFFUTUdCZCt5VUZqdkZYbzl5MFJ6T1FhdGJRN1ZUZ3JWNVF5b2E2cC9RejFqWXEvNTV5dDkrdjRuc1ZjajZubERtU0UrVnloM1psQnVCWlIvT1pTdjN2NXNEaWRPWDBTL1VFcWJnOUNCcHRBa3pxSEZjUHdpU2x4a3U4ZEJxRGlFQ2lxS1JScFJZUnRxQ0tFbXdtWnpxRmx6S0FoeUtHakdvT0JiSmdydVZhUFhzVXcwajJQUXV1WlEzZVJRWGM2QXVxYjZGK29YTC9hWm5xbGsvYXluSFZDdmV0VHZYc3dMNHpPRmNtY0c1VlpBK1pkRDJlcTF6VUZvTVJ5L2lCSVgyUjdWcmFzYnFEaUVpaXFLUlJwUllSdHFDcUVtd21ZTHFHRlRLQXh5S0d6R29nQmNOZ3J4WmFQZnUydzBmMlBSdXVaUTNhUlFQYzZCdXFiNkYrb1hRMzEyN3NzLzNMWE5RZThpcUZjOTZuY3Y1b1hFVEtIY21VRzVGVkQrNVZDMmVtMXpNTFFnRTNFaDQwSy9lZnZldnBEZSt0NXpXQnhDUlJWUm9YcFUzSWFhd2xBalljTTUxTFE1RkFnNUZEaGpVQWl1RWdYN0l1aDNyQXJOM3hpMG5pVlVNeWxVanpPb25qdFUrMEw5WXFqUEhnemZCVSs5NmxHL2V6RXZKR1lLNWM0TXlxeUE4aStGY2pVNjlKdUQwRVRPb1FWeC9FTEdoYlliNFBRT2dvcERxS2dpS2xTUGl0dWp4aEJxSkd3Nmg1bzJod0loaDBKbkxBckN2VUJoWDBJL1p5L1F2STFGNjVsRDlaSkQ5VGdENnBucTNsQ3ZHT296c2MzaGZiYzhncjNxVWI5N01TL0U1NGxRNWt4UlhnSEt2aFRLMWFodERvWVd4ZkVMR1JmYUNvbHVnUE9vc0NJcVZFUEY3VkZqQ0RVVE5sMUFqWnRDb1ZCQ3dUTVdCV0p6SHMzWFdMU09KVlF2S1ZTSGM2Q2VxZTZGK3NTalBwTS91ZUxUdStwcDNmTkFmZXBScjV1WUZjYm5DZVhORE1xcmdISXZoM0kxYXB1RG9VVngvR0tLTFhMcEJqaVBDaXVpUXZXb3dBMDFoMUF6OWFqeEhHcmVIQXFHSEFxZlJWQXdIblUwVDR1Z2RjeWhPc21oT3B3RHRVeDFMOVFuaHZyTDZLdCsxZE42aEFiMXFhRSs5L3lHNFBrc29ieVpRWGtWVU83bFVLNUdiWE13dENpT1gweXhSZlkzd04xeTlodFlJSWFLSzZKQzlhaklEVFdIb1liQ3huT29lWE1vSEVvb2dCWkJBWG1VMFJ5TlJldFhRbldTUTNVNEErcVk2dDFRbnhqcUwyUFBWOUtETktsUERmVzU1emNFRTdPRThtWUc1VlZBdVpkRHVScXQzZWJ3QjVmZmhTODBvZ05Pb2NsRXREQVRjVUZ0b1VzM3dIbFVYQkVWcWtkRjdsR0RDRFVWTmw5QURaeERBVkZDUWJRSUNzbWppT1ptRWJSMk9WUWZPVlIvYzZDT3FkNkYrc09qL2pKNklxdDYycTVBcEY2VjJPT1IzeFJNekJMS214bVVWUUhsWGc1bGFyUjJtOE5GYjc0ZFgyaEVCNXhERXpxSEZzYnhDMm9ML1EvLzlHaGZSS0tQbUtoQVBDcXdpSXJWbzBJMzFDUkNUZFdqQm5Tb2lYTW9KRW9vaUJaQlFYblUwTHdzZ3RhdGhPb2poK3B2QnRWdmgrcGRxRDg4NmkyajczS3d2czcxYmV6dnlHOEt4dWVJVU5aTVVVNEJ5cndVeWxQU05nZVBGc2Z4QzJvTHZmMlJwMitBMHo5VGdYaFVZQkVWcTBlRmJxaEpERFVXTm1GQWpaeERRVkZDZ2JRb0NzMmpnT1ppRWJSZUpWUVhKVlI3TTZCK3FjNE45WWVodnZMODg1WDAxQVBxVStwdnp6SWk4amxDT1RPRGNpcWd2TXVoUENWdGMvQm9jUnkvcUtLRjF2YzNxSUQwOWxQL1RFWGlVWkZGVkt3ZUZidEhqU0xVWE5pRUFUVnlEb1ZGQ1lYU01sQjRIbVkwQjR1aTlTcWh1c2lodXBzRDlVdDFMdFFYSHZXVmQ4TW5IdCsxemVGekQvOEErNVQ2Mi9NYmdva1pRamt6ZzNJcW9MekxvVHdsYlhQd2FIR2N1TEJhYkxzQlR2K3BmNllpOGFqSUNCV3NSd1Z2cUZrTU5SZzJZa0FOblVPQlVVTEJ0QXdVb29jTkhmY3kwRHFWVUQyVVVNM05vTHJ0VUkwTDlZVkhQZVhkZHMrM2QyMXorT1I5MzhVZXBmNzIvS1pnWW9aUXpzeWduQW9vNzNJb1Q4bUIzUnlFRGp5RkpoWFJBamwrWWJYWWI3amkvUGZONmdZNEt3QXFGSThLTGFLQzlhamdEVFdMb1FiRFpneW9vWE1vTkdwUVFDMERCZXBoUWNlN0RMUStOYWdlY3FqZTVrRGRVbjBiNmd0RC9lU3AvN1FoMk9idzBVOS9jNjQvaFhyYldCWkVQaitFTW1hSzhnbFEzdVZRbHBJanN6a0lUZXdjV2lRbkxxNFZrTTQ5V0FGUXNYaFVhQkVWclVkRjcxSERDRFZaanhveW9NYk9vZUNvUVVHMURCU3NCeDBkNTdMUTJwUlFIWlJRcmMyZ2V1MVFmUXYxZzBmOTVLbi85S2h1NjIxOXhCVDdrL3JhOHh1QzU3T0Q4bVVHNVJPZ3JFdWhIRTFwbTBORWkrVDR4ZjM4STA4L29FdVA3YllDb0dMeFlxR2xVT0Y2VlBpR21zWlFvMkZUQnRUWUpSUWdKUlJVeTBRaGU5RFFjUzBUclVzTnFvRWNxck01VUs5VTE0YjZ3YU5lOHRSN2ZuUFF5ZW5ZbTlUWG50OFFqTThPb1h5WlFma1VVTTdsVUk2bTdNdm1zTEcxODJMNmhYS1FOb2M3ejMxbldrQzYzOEVYQWhXTUY0dU5VT0Y2VlBnZU5ZNVFzL1dvTVFOcThCd0trQm9VV010R29Yc1EwTEVzRTYxSERWci9FcXF4T1ZDclZOZUdlc0ZRSDNtKy82eTM2ZmxLMU5PZXp3TGpzME1vWDJaUVBnV1Vjem1Vb3luN3NqbGNjT0xVOCtnWHlwRE5RV2dDVW1oeUVTMlVZNHZyYjREVFJ1RUxnUXJHaThWR3FIZzlLbjZQR3NkUXcyRmpCdFRnSlJRa05TaTRsbzNDZDEzUjYxODJXb2NhdE80bFZGOXpxRTQ3Vk5OQ2ZlQlJIM20rLzZ5MzQvT1ZxSjg5bndPZTN4aUVzbVdLY2dsUXp1VlFocVljcWMxQmFJTG4wR0k1dHJqK0JqaDl4T1FMZ1lyRzg4V1dRd1hzVVFNWWFoNUREZGVqQmcybzBVc29VR3BRZ0swQ2hmRzZvTmU3Q2pUL3RXak5TNmkyNWtDTlVqMGI2Z05EL1JQNTN2TlBXL1ovVHYzcytSendxamNHb1Z3Q2xIRXBsSjg1YlhNZ3RGaU9MWEM4QVM2aXd2Rjh3YVZRQVh2VUJCNDFrS0hHd3dZTnFORkxLRkJxVVpDdEVnWDBmcURYdGlvMDc3Vm92VXVvcnVaUWZYYW9sb1hxMzZQKzhXTHYyZVlRSDc1SHZleFJGdmlOUVNoWFpsQXVCWlJ2T1pTZk9XMXpTS0VGYzdUQWRnT2NMbWVsZ3FEQzhYekJwVkFSUjlRSWhwcklVT1AxcUZFRGF2Z1NDcFphRkdpclJvRzlhdlE2Vm8zbXV4YXRjd25WRTRMYXBEbzJWUDhlOVk0WGU4OGV2bmZaenVlbWYwWjk3RkVPU05zY0tzY3lOd2VoaWNpaGlaNURDK1pvZ2ZYTmJ5b2V1d0V1b3VMeGZDSG1VQ0Y3MUFnZU5aS2hCc1JHRGFqcGExREExS0pnMjBzVTVvdWkzN09YYUo1cjBmcldvSHFhUTNYWm9Sb1dxbnVQK3NhanZudmJtZnQyMWQvKzRYdXhoeVBLQVZuMnhpQ1ViVG1VblRsdGMwaWhSWE8weVBhMlU1c0VGWVJRQVhteElBa1ZjMFFOWWFpWkREVmdqeG8yb01Zdm9aQVpnZ0p1djFIb0UvcDM5eFBON3hDMHZpVlVSM09vSGp0VXY0YnEzcU9lOGFqdmRDSmEvYTB2L3FIZUpaUUJmbU5ZMXVaQXVaWkR1Vm5TTm9jY1dqam5qLzdtVTMzeC9OMkhIc0NpRUNvZ2o0cVNVRUY3MUJBZU5aU2hSc1NtQlJRQUpSUTBRMURRTmNQUXZBNUI2MXBDOVlPb0hqdFV1MEwxN2xHL1JOUno4Y21zSmRULzBqYUhBU08zT2J6aXoyL0RGNXBEazVGRGs0MW80UndySEoyWTFxSlRZVkFSZVZTVWhBcmFvNmJ3cUtrTU5XS1BHamVnRUtoQmdUTUVCVjVUaCtaekNGclBHbFEvYzZnT08xUzNodXJkbzM3eHFOL0VQNW4xb2EvOUNQdlhvLzZYWlc4TVFybVdRN21aOC9EWC8zWDM1TVUzWWtiTHZtd09la0gwWWt0b1FuSm93dWZRNGszNE95alBmT3dyeWMxQnFKQThLa3hDaGUxUlkzalVXSVlhc2tjTkhGQVExS0RnR1lLQ3I4bWplUnlDMXJFRzFRMkNHcVI2TlZUbkh2VkpSTDBtSDdpdC9ydGFxTy9GYnd6TDJod296M0lvTDB2MmJYTTRmdUxVcytnWHl0WTZiUTVDQzlpNTU2SHZUd3ZuK2p1L2RxUTNCNkZBcUVFQk5CU0ZZRE9QNW00SVdyOGFWQytJNnE5RDlXcW96ajNxRTQvNnpOeDQxOWQzcmNmdmZ2Qko3RjFEZlM5dGN4ZzRjcHZEcjc3aUEvMExveGVjUTVPU1E1T09hQUU3LzN6dWlXbmg2RTVwVzN3cUVLR0M4cWc0SXlydWlCckVvd1l6MUpnOWF1U0FRcUVXQmRGUUZJYk5lVFJmUTlHNjFhSjZtVU4xMTZFNk5WVGZIdlZIUkgxbTlEUlc2L0ZQZlA0NzJMZUdldDV2Q2tJNU1vUHlCMUNlNVZCZTVpaC85Mjl6ZU5HWm42SmZLR00zQjZHSnlhR0puME9MMlBtbnU3ODFMUnc5T3NNS2dJcEVxS0E4S2s1Q0JlNVJrMFRVYUlZYUZKc1pVRERVb2tBYWlvTHhxS041R29yV3F4YlZDYUs2NjFDTkdxcHRqL3JEby83eS9HTzdiL3ZzdDdCdmhmcGQvTVlnbENNektIOEN5ckVTeXNxY2ZkMGNOT2dYeXJOZmN2VjZiUTRDQy9tUlR6NzlUVkdmZWVESm1TS2dRcUdpaXFoQUl5cnlpQnJGbzBZejFLQTlhbWhBQVZHTGdta01Dc21qaHVabERGcW5XbFFmaU9xdFEvVnBxSzQ5Nm91SStzdjc3SU5QZjNTc2o1aW9aNFg2WFh3bVVJYk1vZXdKS01keUtDZEwxblp6RUh0eDlNSnphSEp5YVBJUkxPVFZIMzFrV2pqbnZ2ekRtVUtnUWhFcUxJOEtsRkNoUjlRd0hqV2NvVWJ0VVdNRENvcGFGRkJqVVdnZWRqUVBZOUg2MUtLNlFGUm5IYXBMUS9VY1VVOTQxRmZSRjc3eTlFVW5IN3JqTWV4WjZuUHhlU0NVSVRNb2R3RGxXQTdsWk1tK2J3NGJXOXVQMFM4VnZZVWJzemtJVFZBT0xjQWNXTXlyYnZyeXRIRDB6NzRRcUZpRWlpdWlJbzJvMkNOcUdJK2F6bEN6VGxHREF3cU1XaFJVWTFHQUhsWjAvR1BSdXRTaWVraWlHdXRRWFJxcVo0LzZJYUsraXI3MCtML3VXby9yaWtUcVYrcHo4WGtnTVQvbVVPNEVsRjhsbEpFNXRqSHM2K1p3YkhQbmR2cWxvdnNHMW1wemtMQ1l1dkZOUmZNZjMvN0ovcDlqTVZEQkNCV1lSMFZLcU9BamFoeVBHczlRdy9hb3dSTW9PR3BSWUMyQ3d2U3dvT05kQkszSEVGUUxpT3FyUS9Wb3FJNDk2b09JK29tb0gyMXoyTG54NGJsZUZlcnhtQVV4TytaUTNnREtyeHpLeDVLMTJCdzJ0bmJlU2I5VTN2ajM5MHhmSUIxQURrMVNEaTBDQ2d2Nlg2NSsrcmtyK3VkWUVGUTBRZ1VXVWFGR1ZQUVJOVTlFRFdpb2NYdlU2SUNDWXdnS3JtV2dnRDJJNk5nV1Jlc3dCTlVCb3JycVVCMTZWTU1lOVVGRS9VVFVpNi8vcitlL0kxNlAwb2g5U3YwdE1RdGlkc3lodkFHVVh6bVVqeVZyc1RrYzI5cCtMZjFTK2QvKzlHT2pOd2VoaWNxaGhVQnVRZjFEOSt6UFlsRlE0VWdzc29nS2xWRGhSOVJBSGpXZ1J3M2NvNFlIRkNCRFVZZ3RBd1h1dXFQaldCYWEreUZvL1JIVjB3VFZvS0g2OWFqK0krb2pZcjFvejAvVEU1aDlqd3IxZHN3QW54bEpsRFVCNVZZSlpXT08zeGhrM3phSDNGM1N6M25WdGRNWFNBZFJRaE9WUTR1QjNJSmEwZWdkaFAxWkxBd3FIb2xGUnFoZ0NUV0FSMDBVVVNNYWF1QXBhbnhBUVRJVWhka3lVUkN2RTNyTnkwTHpQUlN0ZXhMVlVvZnF6MURkUmxUL0VmVVFzVDc4ejFmZXM2cysxMThHZlg5U1gwdk1BSjhaaUhJR1VHN2xVQzZXK0kxQjltMXpPSDd5UFQ5RHY5VGMrL0FQcGkrU0RpU0hKcXVFRm1TT1cxVC8wRDMvNTdFNHFJREVGeHFoZ2lYVUFCRTFVa1FOYWFpUnA2ajVBUVhLVUJSc3EwRGh2TmZvZGEwQ3pmTlF0TjVKVkVNZHFqdVBhdGFqdW8rb2Y0anZRL3VFNEQrOTU3TXpmMDQ5TGI3M2ZTNGtVYzRBeXF3Y3lzVVN2ekhJdm0wT0dodWIyeittWHl6NmpNOWVKQjFJQ1UxWURpMEltaXlxQ2taTzNmQ2xtY1gyeFNGVVFPSUxMWVVLbDFBalJOUlFIaldrUnczZG93QklvR0FaZzBKdWxTaThsNDErNzZyUjNBNUY2NXhFOWRPaGV2T29YajJxOTRqNkpzWDNvSDJobHo0cHNMNk52V3hpNy90Y1FKUXZnUElxaC9Ld3hHOEtabjgzaDYzdE0vU0xSWS91dGhkSkIxTkNrNVpEaTRLNlJmVVAzZFA5RG5IUlk1RlFJWWt2UWtLRlM2Z1pJbXFxaUJyVG84YnVVUkFrVU1DTVFXRzMxeWprUytqbjdEV2F6ekZvZlpPb2JqcFVaeDdWYVVUMUhsSGZrTmlEOXAwT3VpclJlamIyc1lsOUgzTmhEdVVMb0x6S29Ud3M4WnVDMmRmTjRkaUoweGZSTDVaZmZOazFNeStVRGlpSEpxMkVGb2I0T3lkMXAzUmM5RmdrVkVnU0M1RlFBUk5xaUlnYUs2SUc5YWpCZXhRSUNSUTBZMUg0Tll6bWJ5eGExeVNxbHdtcU1VUDFHVkdkUjlRdmhQcnZ2VGMvZlQ4VDliQ0pQUjh6WVE3a0NxR2NLcUU4TFBGWmEvWjFjOGc5WTBsdSt0UTNwaStVRHFpRUppNkhGb2ZFaCs3UjRzZGlvWUlTS2tpUGlqaUZHaU9pQm91b1VRMDErQlFGUXdhRnpoZ1VoTTBzbXJleGFDMlRxRTRtcUw0OHFrMlA2cHRRcnhEcVA5MzhacjErLzFmL0JYdFlZcjlUSnN5QVhDR1VVem1VZ3lWK1EvRDJkWFBRT0xhMWZZNSt1Vnp5ZDUrWnZsQTZxQkthdkJKYW9PaFc5OUE5YlJTMCtMRllxS0NFQ2pLaVFpYlVHSVFhemFORzlhalJweWdnTWloOHhxSlFQT3BvbnNhaTljdWkrcGlndXZLb0xpT3E3WWo2aEZEZmlmOU9oODgvOGtQczRkanJsQWR6SUZjaXlxY1N5c0VTdnlGNGE3QTU3RndXZjdIeGw3UUtIVmdKVFdBT0xWSjB3eWVlZnVpZXZ0Y0JGNzhUaTRZS1M2Z29QU3JtRkdxUWlCb3Rvb2IxcU9HbktDZ3lLSWdXUVNGNTFOQzhMSUxXTFl2cVlvTHF5YU42aktpdUkrcVBGT283OGQvcHNMVE5BVEtGVUQ2VlVBYm0rSHlOOW4xemVPYkowNzlNdjl4Y2Zjc2oweGRMQjFkQ0UxaENDK1hGaCs1aEFYUmkwVkJoQ1JWbFJBV2RRbzBTVWNORjFMZ2VOZjRVQlVZR0JkS2lLRFFQTzVxSFJkRjZaVkU5VEZBZGVWU0hFZFV6b2Q0ZzFHL0didzc2VG9mWXU3SEhLUWZtUUtZUXlxWWN5cjhTdnhsRSs3NDVhQnpiM0g2SVhvRDR1NldGRGpDSEpyR0VGc3FMRDkzTGljVVRpOHRRWVVaVTJJUWFoVkRqUmRUQUhnWEFGQVZIQVlYVG9paEVEeHM2N21XZ05jcWlPcGlnK3ZHby9pS3FZMEo5UWFqUHZOdnZmZnI4WXR3Y1ltOVQvOCtCUENHVVN5V1VmeVUrVzZOMTJSeGVUeS9BbkwzL2U5TVhUQWRZUWhOWlFndG03S0Y3dWhFT0M4Q0pCZVNMeTZQQ2pLaTRVNmhoQ0RWZ1JJM3NVUkJNVVlBVVVFZ3RDd1hyUVVYSHR5eTBMa1cwL2hOVU54N1ZIYUVhanFnZlVxalBQRzBJdGpub0M3NTh6OGJlcHY2ZkEzbENLSk55S1BkSy9FWkExbUp6T1A3clovN054dGIyZjZNWElYLzhqclBURjB3SFdVS1RXVUlMWnVKRDkwcGlFZmtDODZnNEl5cndGR3FjaUJxUVVFTjdGQWhURkNRRkZGakxSb0c3N3VnNGxvM1dvNGpXZllMcXhhTjZJMVMvRWZWQkN2Vlg1RGNIZmNSa3ZScDdtdnArRG1RSm9Ud3FvZHdyOFJzQldZdk5RV05qYytjVXZRalJQUStMUEU1RGFFSkxhT0hFYnFudk53ZjlHUldDRXd2SmJ3Z1JGV2hFaFU2b2VRZzFJcUhHOWlnWVpsQ29GRkI0clFJRjhicWcxN3NLTlA5VmFLMG5xRTRpcXJXSTZwWlFINlJRYjBYM1BmTDBEYS9ydWpsUTNwWDRUU0JsYlRhSDBvbnBQN2o4cnVtTHBvTXRvVWt0b1lVVDJ4ejBuLzJmVVNFRXNaajhodUJSZ1VaVTZDblVRSVFha2xCemV4UVFNeWhjQ2lqSVZvMUNlcS9RNjFrMW12Y2lXbCtINmlPaUdvdW9YZ25WZndyMVZhUis5SnZEUC96VG8vMmZ4VjZtZnA4VE1pU0ZjcWlFOHE3RWJ3SXBhN001YU9ST1RQL2NiMTYxTnVjZTlIMFRNNXVEVUVFRXNhajhwdUJSb1VaVThDblVTSVFhazFDVGV4UVVNeWhvS2xDbzdUVUs4N0hvNSs4MW11Y3F0SzRPMVVWRXRSVlJuUktxK3hUcXA4aDY4Y0d2L1dqWE5nZmRFS2MvaTMxTXZUN0RaVWNKWlZBTzVWd052d21rck5YbXNMRzE4Mko2SVdhdnYrZEJhQUh0Y2QycjJoeUVDamFpd2sraGhpTFVvSVNhM2FQQW1FR0JVNGxDcmhtRzVyVWFyYWREOVJCUlRVVlVuNFRxUFlYNmlQaGV0TTFCajlLSVBVeDlQc2RsUnc3bFR3bmxYSW5mQUhMV2FuUFE2SDd4MmZoQ1BIdWtCaDEwRFpyZ2tyaUl0am4wait2Mi94c1ZSaENMeXhlaFJ3VWJVZkhuVUdNUmFsUkNUUjlSZU15ZzhLbEVvZGZrMFR4V28vVUxxQVlpcXFXSTZqS0ZhajJGK2lpS3ZXaWJnL285OWkvMStBeWZEd1dVUFNXVWNTVnhFMGhadTgyaGRPN2hmM250RGYxVFVmWGk2Y0JMYUlKTDRpTE9mSmVELzkrb09JSllYQktMMFZEaFJ0UUFLZFJZS2RTd2hKby9vaENaUVVFMEFJVmdNNHZtYlJCYU40ZldQYUw2U2FHYUpGVG5LZFEvRWZYaG4xenhhZHdjcUwvbitIeklvTndwb1h3cmlSdEF6dHB0RGhySE5yZHZwaGRrN09RMEhYd05tdWdTdjVEK2J4TCt6M3RVSUlFdk1LR0NORlRBRVRWQ0NqVllDalV0b1NDSUtGRG1VQ2dOUUtGNDFORThEVVpyNWRCNlIxUTNLVlNMaE9vN2hmcUdVQS9hSndYNmJnZnJXZXJyT1RFYk1paHpTaWpiU3VJR2tMT1dtNFBlUGVUdWV4QjdyQVpOUUFsTmRJbGZTTnNjZEtlMC8vTXBLcFRBYnc1Q1JTbFV3SVFhSW9VYUxZV2FsMUFnUkJRc2N5aWNCcUtRUEdwb1hnYWo5UWxvblNPcWx4U3FRVUoxblVMOVFxai81TS9lL2RtKzMzV08wZnFWZW5vT1pRT2d2Q21oWEN1SjRWK3lscHVEUnJjNXZJMWVsTkc5RDUrKy8wbWNoQm8wNFNWYXlDODkvcS9UemFIL29wK3cwRDBxbE1CdkRJWUtVNmlRQ1RWR0NqVmNDalV4b1dBZ0ZESnpLS3hHb09BOHpHZ09ScUUxY1doZENkVkpDdFVlb1hyT29WNkpxTytNdjNSZGZVcjlQSWR5QVZET2xGQ2UxYUFOSUVVNXQ3YWJ3K1N1NmNmb2habXQ3c1hyUUdnaVNtalNTN1NZbjN2NEIrWE5RYWhnZ3RyTlFhaWdJMnFNSEdxOEZHcG1RZ0ZCS0hEbVVHaU5SRUY2V05EeGprYnJFTkI2RXFxUEZLbzVRbldjUTMwU1ViOFo5YVZ0RHJWUFJNQThTS0NjS2FFOEs0bmhYN0xXbTRQRzhSZnNQTHYwOFpLK1RwUW1vd1pOZkluZkhENzh6MS9EQloraXdnbHFOd2dxYWtJTmtrTU5tRUpOblVKaFFTaDg1bENJTFlBQzlxQ2g0MW9JelR1Z05TUlVFNFRxTElYcU40ZjZnMUMvaWZXay94NXA2dUU1bEFXQThxV0VjcXdHYlFBcDJoaldmblBRS0QyVVQvU2xRRFFoSlRUNUpYYy8rT1IwYzlEM090Q2lUMUhoQkg1ak1GU29Rb1ZOcUZGeXFCRlRxTUZUS0RRSWhSQ2lVRnNDQ3Q5MVE2OTdLV2llQWEwYm9UcElvZnBLb2JyTm9iNGcxR2ZHK2xFWG5xamYzM0RGV2V6aEdaUURDWlF2SlpSakpiUUI1QnlZelVIajJPYk83ZlFDdmJlY1BvY1RVMElMa0hQSDU1NStoRzl4Y3hBcW9NQnZERUtGYXFqQUNUVk1EalZrQ2pWNkNnVklDb1VTb3BCYk1ncm92VVN2YWFsb1hnR3RVd3F0ZndyVlZRclZhdzcxQTZIK01yNGZiWE1RNnQ4cDZ2OEV5cFlTeXE4YXRBSGtIS2pONGZqSjkvek14dWJPVS9RaXZTcytlRDlPVGc0dFFvN2ZIRDcybVcvaXdzK2dJZ0srR0lVSzFsQ2hFMnFjSEdyTUZHcjRGQXFTRkFxb0pBcTlGYU1nSDR0Ky9zclJQQ2JRK3FUUXVxZFFQYVZRbmVaUUh4RHFLeE43MFgrNUYvWHVGUFUvb0Z5cFFmbFZRdUdmWXh2RGdka2NOUHJMV3plM2Ywd3YxRnYxQnVFM0IvMTNXdnc1VkVoQkxFaWh3alZVOElRYUtJY2FOSVVhUDRkQ0pZWENLb2xDc0psRjg1WkE2NUZDNjV4RGRaUkM5VmxDUFVDb3A0VDYwRzhPWC9qS1U5aS8yUGNKbENzbGxGczFhQVBJT1pDYmc4Ykd5ZTNOMGdscXVlUmRkK05FNWRDQ0VQLzkwZFdiZzFCQkJWU1lWTUJDQlUrb2dVcW9VVk1vQUhJb1lISW92TElvR0k4cW1wOE1tdjhjV3Q4Y3FwOFVxc3NTcW45Qy9XUmkvNmt2OVRSVzYzbjhXbURxOXdUS2xCcVVXU1VVL2psK1l6aHdtNFBHeHViT3krbkZSa092WXFJRklYNXowRk5pcVFDU1lsR0JXSnhVd0lZS24xQWpsVkRENWxBWTVGRFk1RkNZWlZGWUhoVTBIeGswM3ptMG5qbFVMemxVanlWVTk0VDZ5TVRlczU3OHlDZWY3dm45MkJ3b3IyclFCcEJ6NERjSGpab3JtT1RGYjdobDkvNnYvZ3RPSEtHRmlmem1vQzhnb2dKSWlrV1ZFSXVVQ3RsUUF4QnFxQkpxM0J3S2hod0tuaElLdHlJSzBNT0dqcnVBNXJlRTFqR0g2aVNINnJDRTZwMVEvNWpZYzc0Zi9lYnd6K2VlbVBuZnNNOFRLRTlLS0tkcVVQam54STNod0c0T0d0MEx2Q3krWVBLY1YxMjdlOXM5MzhZSmpHaHhJajIydzI4TytqTXFoQ1JmV0JteFdLbWdEVFVDb2NZcW9RYk9vWUFvb1JBcW9iQ3JSdUY2RU5HeFZhRDVMS0YxSzZINnlLSDZLNkU2SjlRM0p2YWErRjc4ZUpjZnVEbFFmeWZFSEtsRk9WV0ROb0NjUTdVNWFCemIzTG1VWG5qMDdKZGN2YnY5a1lkeEVpTmFJTTl2RHZxV0tQdHpLb2drVjNncFZMQlUySVlhZ2xDRGxWQWpsMUJZbEZBb2xWRDREVUtodTY3bzlROUE4MWRDNjFSQzlWQkNkVmRDOVUyb1h3ejFXZXhGYlFqVzg3ZmUvYTJuL3pmcTdRU2ZJYlVvbjJwUStPZlF4aUFIZW5QUU9IYmk5RVUxSjZsRkh6UFZ2SXVnaFRKK2MvQi9UZ1dSNUFvdmh3cVhDdHhRWXhCcXRCclUxRGtVSERVb3BHcFFJSTVDd2J6WDZIV05RUE5VaTlhbWhPcWdoR3F0aE9xYVVKOFk2aS9xUTc4NTZDT20vcytwcnhOOFRneEIyVlNETm9BYzJoamt3RzhPR2hlY09QVzhtc3RjalRhSmQzLzRRWnhZb1lXNjl2YkhkbDk5MlIyNy84T0wzdHYvRFAzbm0wN2RPL1Avb2NKSUNnV1lRZ1ZNaFc2b1FRZzFYQTFxN2hJS2tSSUtxeUVvS0plQ2dud3MrdmxMUW5OU2k5YWpCcTE5RHRWWERhcG5RdjNoeGI2aS9wTzV6WUg2T2NIbnd4Q1VTelVvL0hOb1V6Q0hZblBRT1ArWTc1MG42RUJTOUwzVW1nQmQraXJYZnZ5clQrczJBLzNaU3krNWRmZFhYL0VCL1BkRmQyYjdSYVVDU1lKQ0pMR0lxZEE5YWhSQ2pWZURHcjJFd3FRR2hkZFFGSjZIRVIzN0VEVC9OV2k5UzZpdWFsQWRFK29MTC9ZVTlaM1JGVXEyT1ZROUZXSEM1OElRRlBvMUtQeExhRk13aDJaejBOQ2QxTWUydHMvUndheUtIaDJ1SzZKc1lhbElzcUFZU1N4bUtuaVBHaWFGbXJDRUdyNEdoVXN0Q3JTaEtGUVBLanErTVdpdWE5RDYxcUI2cWtHMW0wSTlZV0l2Q2ZXY09heWJBMjBJM3FIYUhEVDBxTzl1ZzdpT0RtaFZkRFdEWDF3cWxDd29TQklMbWdyZm82WkpvV2FzUWMxZlFrRXpCQVhjV0JTNjY0cGUvMWcwcjBQUXV0YWdHcXBCTlp0Q3ZXQmlEd24xbXVjM2gydHVmWlI3T1BCNU1BU0ZmZzBLL3h6YURLSkR0em5ZNkU5VVZ6eVBhUmxPMy9UdzNDSlR3U1JCUVJJcWJHb0FqNW9uaFpxeUJvVkFEUXFkSVNqMGxvR0NlYS9SNjFvR21zY2hhQjFyVU4zVW9Eck5vUjR3MUQvVVo1SGZITExmNFRJUnM2QVdoWDR0MmdCeWFET0lEdTNtb0hIOFJXZCtxdlNOY3NzUVQwd2JLcHdrS0VwQ0JVNk40RkVUcFZDRDFxQkFxRVVoTkJRRjRhcFFtQTlGUDNkVmFMNkdvbldyUmZWU2crb3poMnJmVU45UWZ4RTlUMm1kTndjSy94emFDTWloM2h4c0hEOXg2bGtiV3p2dlhOVTdDVjM5Ukl0TmhaTUZoVW1vMEtraFBHcW1GR3JVV2hRT3RTaVV4cUNBUEdwb1hzYWdkYXBGOVZHTDZqS0Y2dDJqZnFHK1FwUGVyTjBjS0FkcVVPalhvUEF2b1kyQUhJbk53UTg5bTZsN04zRm02SlZOT2JycVNXODlhZEdwZ0xLb1FBRVZQRFdHUjQyVlFnMWJpNEppQ0FxcHNTZzREeXM2L3JGb1hZYWd1cWhGOVpoQ2RlNVJuMUEvSWRlWE5ac0Q5WDhOQ3YxYUZQNDV0QW1rSExuTndZLytIY1g1Qi9ucFVSeVhIZHZjdnJuN3o3T1QvN1EvZTczdW81aDhwM1h5WnJ2M1hQOFFMcnhRSVdWUm9RSXFmR29Ranhvc2g1cTNGb1hHRUJSYWk2QkFQZWpvT0JkQjZ6QUUxVUV0cXI4Y3FtK1Arb1A2Q0lXZXRNMUJmUjcvTjZHK3IwV2hYNFBDUDRjMmdKd2p2VGtNSGJtcm9INzkzMzhZRjk1UVFXVlJ3UUpxQUdvVWp4b3RoeHA1Q0FxUklTakVsb0hDZHQzUmNTd0R6ZnRRdFBhMXFPNXlxSzQ5Nmd2cW42VFFqN1k1NkZ2aDR2OUcvVjZMUXI4V2JRQTV0QUhrdE0xaHdOQVZVRFJSaHE1YThtSlJGVkhSQW1vRWFoaVBHaTZIR25vSUNwT2hLTlJXZ1VKNXI5SHJXZ1dhNTZGb3ZZZWdlc3VoZXZhb0g2aHZrcUFYLytodlByWDB6WUVDdnhhRmZ3NkZmMG5iSEFhTS9xT2x6RW50L1hyM0lOUVExRGdlTlY0Sk5mY1FGQzVqVU5EdEZRcnpvZWpuN2hXYXp6Rm9mWWVpR3N1aE92YW9ENmhma3FnUE8zLzZ0NS9CellINnZBWUZmaTBLL3hJSy81SzJPUXdjcGUrUzJLOTNEMEtOUVEza1VRT1dVSk1QUldFekJvVmZ3MmoreHFEMUhJcnFxb1RxMTZQNnB6NUpvdjZib00yQityc1doWDR0Q3Y4Y0N2NGFiWE1ZT1BTSWp0eUo2ZEs3Qi9GRlY0VUtPWUVhUktpWlBHckdIR3I0TVNoOHhxSkFQT3BvbnNhaTlSdUQ2aW1INmpXaW1xZitTS0srYzJ4eitNdXJ6dlgvVEgxZGl3Sy9Gb1YvRG9WK3JiWTVqQmk2WjRJbXpGeDgrVjFZRkY0c3ZpSXE2QVJxRktHbThxZ3hTNmo1eDZBd1doU0Y1VkZBYzdFSVdxOHhxSDVLcUU0anFuWHFpeVRxdDhCdkR0VFB0U2p3YTFINGwxRG8xL2pVRjcrMysvTy9kZjRKMUtSdERvbFJldmNnYno5ekh4YUhSMFdZUllXZFFBMGoxRndlTldnTkNvTXhLSnlXZ1VMMHNLRGpYUVphbjdHb1prcW9QajJxYjZGK1NLSStBMi84KzNzVzNod284R3RSOEpkUTZOZjZnKzR2dUpScjVobi82ODcvZXhLSGJjUlJldmVnRytQMDJHOHFFbzhLTVlzS1BJT2FoeG90b21ZdG9WQVlpOEpxbVNoa0R3bzZubVdpOVJpTDZxUUcxYVJIZFMzVUEwblVYd25hRkJiWkhDandoNkR3ejZIQXIxVjYxNkFuWC8vRVQreitkNU1vYkNPTzg4OXR5dDlscmE4bi9lUjkzOFZpOGFnWXM2alFNNmlKcU9FaWF0b2FGQkpqVVhpdEVvWHhmcUhYdDBvMC8yTlJYZFNnT295b25xbnVzNml2TW14emVQTTJQMGV0aEFLL0ZvVi9DWVYrcmRLN2hvM04wNy9kTm9mQ09QOEZRL21QbDdSQm5QbllWN0JnUENySUlpcjZCR29vb2VienFJRnJVV2dzZ2dKdHIxR0lqMFUvZjYvUlBDK0thcUVHMVY5RU5VejFua1c5bEtIK3RNMUI1eDVpNzVaUTROZWk0Qytod0s5VmZOZXd1ZjFRMnhncVIvZnU0Y1U0aVlHK1ZZNEt4NlBDTEtMaVQ2REdFbXJDaUpxNUJvWEhvaWprbW1Gb1hoZEY2MStENmkyaXVoV3E4eXpxb1F6cnpiR2JBd1YrTFFyK0VncjhJVXJ2R2k3WTJ0bWFSRjhiTmVQWTVzNmxOSkdSTGcyNys4RW5zWWdNRldnUk5VRUNOWmhRUTBiVTJMVW9USmFCZ3E5aE5IL0xRT3RkaStvc29ub1ZxdThzNnAwQzY4c3JQbmovNE0yQkFuOElDdjhTQ3Z4YU45NzE5ZDBMVDNKMnljYm16aTN0WGNPSVVmdnRjL3BhVVJVYUZaT2hJaTJpWnNpZ1poTnF6b2lhdkJhRnk3SlFJQjUxTkUvTFF1dGJpK3FLVUkwSzFYUVM5VXNGMzVOLys2RUhCbTBPRlBaRFVQQ1hVT0FQOGJ6ZnV4NHp5eHpmdlBKWEpuSFh4cEF4K1hyUzZ1K3YxaWJ4bHRQblpyNS8ycU5pTGFMR3lLQ21FMnJTaUJwK0NBcWJaYU93UE94b0hwYU4xbk1JcXFlSTZsS29qck9vVHlyRWZyVE5RYzlZVW5qSC85MkxRVDhVQlg4SmhmMFFienR6WDN2WHNNcWhLNWlHZm4rMVRsanJmQVI5M0VSRlcwUU5ra0VOS05Td2hKcC9DQXFmVmFFd1Blam9PRmVGMW04SXFoOUM5U2hVdjFuVUh3V3hCNDF0RHFJQXAvK1BpV0UvQkFWL0NZWDlFRG9KL1F0ZERsRStpUzY2YWU4YWxqVDAvS1hTVlV5UjdvdDR6VnZ2bkx2MGxRcTRpQnFsZ0pwUnFIa0poY0VRRkVaN2dRSjNYZEhyM3d1MFhrTlF2UkNxUDBNMW0wVjlVZUQ3THFyZEhHTFlEMEhCWDRNQ2Y0aFgvUGx0bUVsbVkydm43ZTFkd3hMSEJadW5uMU82RHlMbDFaZmRzZnZSVDM5elduQlV5RVhVTUFYVWxFS05UQ2dZeHFDQTJtc1V6bnVGWHM5K29MVVppdXFFVU4wSjFXa1I5VU9CRDNoeTlTMlBGRGVIR1BaRFVmQ1hVTmdQY2VxR0wrVS9UdW95Yk9OMzN2R1RrMWhyWTFtai81aHBjK2QybXZRYSttNXF1OHVhQ3JvS05VOEdOYWlocGlZVUVtTlFZSzI3ZFF6NUlXZ2R4cUM2SUZSbmh1b3ppK3EvUWd4NVV0b2NZdEFQUmNGZlFtRS94RCtmZXlMN2NaSzBTMWRYUFBxUG1UTGZBMUdpSjczcVVlQlUyRldva1Fxb1dZVWFQSVZDWXl3S3NtWjVhTTdIb0RwSW9mb1Nxc2NpcXZzS01lUlRjcHRERFBxaEtQaExLT3lIK01KWG50cDkvdXR1d0x3eFhXWjl1SDJjdEVkRDN5UzNzYlg5R0MxRWpWOTc1UWY2eTJBZmVPeEhXT2haMUZBRjFMaUdtajJGUW1RUkZHN05jRFMzWTlHNnAxQTlHYXJESXFyM0NqN2dTMUtiUXd6Nm9TajRhMURnRDFGK1JNYjJqeTg4c2YyTVNYUzFzVmZqL0YzVjlaZTlScm9NOWsybjd0Mjk3NUduc09penFMa0txSWtOTlg4S2hjb2lLUENhUEpySFJkQTZwMUQ5R0txN0tsVGpGWHp3MTZETklRYjlVQlQ2TlNqc2h5aWRaNUR1TDdHdmJ1OGE5bkZjY09MVTg0NXRidDlNaTFORGw4SHF1eU0rKytEM3NRR1NxTWtxVUZNYkNvTVVDcGxsb0RBODZtaWVsb0hXTllkcXhsQ3RGVkZkVjRyQlh5TnVEb3VpMEs5QllUOUV6WG1HN2krdjcyOGJ3NXFNNHkvWWVYYTNVNStoaGFxaHkyRC8zVi9jc2Z1UlR6Nk96WUNvNFNwUWN4c0toUndLbldXaG9Ed3FhRDZXaGRZeGgrckVVSDFWb1hxdVJNRmZ3MjhPQ21rSy9Gb3g4R3RSMkE5eDc1ZCtzUHZjaXo2RUdXTDBzWGU3T21rTngva3ZFZHA1NTlCN0pEd3QvdVh2LzBMOVIwN1VmQldvMlEyRlJBa0YwYkpSa0I1MGRKeXJRR3VXUTNWaHFKNnFVUDFXb3NBZllyODNCd3I3SWFwT1FPdG10NU5YL2NJa2p0cFl4M0grVHV1ZHl4YTV3a252Smw3NXh0dDIzMy9yVjdCWlpsQWpWcUxtTnhRYUpSUk1xMFNCdTY3bzlhOFNyVThKMVlGSE5WU0Y2cllTaGYxUWZuTjQ4R3Mvd3RDdlFjRmZnd0ovQ0YwV1R6bmh0ZTlwT0VCajhyeW0xNDY5bWM3b0tpZWR3QzZlbTZDbXJFQWg0RkdJMUtEQTJrc1UwS3RHcjJNdjBUclVvSFgzcUc2cVVKME9RRUUvaHQ4YzlQRU1CWDhKaFg0TkN2c2hMbnJ6N1pnTDNzYm05dCsyamVHQURsMEdxeS9hb0lVZG92aHVnaHEwRW9XQ1I2RlNpNEtzV1I2YTh4cTB6aDdWU1RXcXp3RW81TWRRc0MrNk9WRG8xNkN3SCtLU3Yvc001a0J3dHAxbk9BUmo0K1QycGhZekxPNWd4WGNUMUt5VktDUWlDcHBhRkc3TmNEUzN0V2hOUGFxTGFsU1BBMURBaitIRGZaSE5nVUsvQm9YOUVGVWJRL2NYemd0ZmVPVlBUK0tsamNNd0psOVJlbWFSazljbStXNkNHbmNBQ28ySWdtY0lDcjJHMGZ3TlFlc1hVUjBNRW10d0lBcjVNV0xBajkwY0tQUnJVTmdQVWZWUjB0Yk9FeGMrLy9UUFRpS2xqY00ySm84SmY2MHVRYU1DR0NMNWJvS2FlQUFLa1lqQ2FDZ0t4S09PNW1rb1dxK0kxbjBRWDI4alVNQ1BSU0UvWm5PZzBLOUJZVDlFNVRtR0g3ZkhjQitoY2Y1SnNNdDdOM0hWVFYrZWJVSnE2b0VvV0NJS3FERW9MQTg3bW9jeGFGMElyZkVndnI1R29vQWZpMEplaG00T0ZQbzFLT3hyNlhMVmwxNXlLL2F6cDN5NDRPVDJiMHhpbzQyak5KYjVia0ozWWVzR3U1bU5ncHA4SUFvYVFzRzFDQXJVZzRxT2J4RTAvNFRXY3hRWDhHTlJ3STlGSVcrR2JBNFUralVvOEd2cE5kVmNyaW9iSjA3OWJyc3lxWTJsdnB1WTJTaW8yVWVnOEVtaFFGc1dDdDkxUWE5M1dXaWVVMmo5Um9HUUg0ckNmUkVVOGw3dDVrQ2hYNE1DdjlhTmQzMjllT2V6S0FNNjdabEpiY3lPWmI2YkVMdko3c3AvZkdqM29hLzlpRU5nSUFxa0ZBcTZWYVBnWGhUOW5sV2orVXloZFJvTlFuNE1DdmV4S09ESkIyNTd0TGc1VU9qWG9NQ3Y5YTdySHR6OStkOTZML2FvcDQyaGZUZERHOFhSWCttMHVYTktKNldva0liYTc0MUNLQVNicDlHYzVkQ2FqQVlCUHdhRit5SW80RlArOGM3SHM1c0RoWDROQ3Z4YXBjZHVHL1g1TTA5c1AzZlMvbTIwVVI3OUhkaTZ1VzZCeDRjVG5SUjc1N1VQOUNmSU1Dd0dvdkFxb1lBOFNtaE9TbWp1RndJQlB4YUYreUppdUpma05nY0svUm9VK0RVKzljWHY3WjY4K0Vic3ZhaGRsZFRHd3FOL011d1MzMDJZZGRnb2hBTDBzS0RqclVIenV4UVE3bU5Sc0MvQ2gvb1F0RGxRNEE5QndWL3lqZzk4c2ZqSWJkUHVZMmhqcVVQdkpycE40dVhkdTRucmxuRVMyM3ZoSDk3VVB6SDJub2UrejZFeUVBWGVVQlMyNjRwZS8xQTBqMHNCd2I0SUN2WkZ4Y0FmSW00T0ZQWkRVUERuNk4xQzdkVklFMmZibmM5dHJHeXNjcVBRNDRQLzVJcFA3MTV6NjZNY05pTlFHQzZDQW5yVjZIVXNndVpwcVNEWUYwR2h2Z3dVK0VOb2MzalZtMjdmL2Jkdi9Iai9seHNLL0JvVS9DVkQzaTFJOSs2L1BVU3ZqYjBiL1VheHRmUGlicE00cyt5UG5rVHZLaTU5OTkzOVpYa1lRaU5RV0I1Mk5BOHJBY0crS0FyMVJWSFFEL0c1aDMrd2U4bTc3dDc5SDEvMHZtbXQvc1ovdUw2L2VvbkNQNGVDUDBlOU1PVGRndjRDMSs1aGFHUGZ4eW8zQ2wzOXBLWjQ2M3ZQN2Q1Njk3YzRuRWFpUUQybzZQaFdDZ0o5R1NqVWw0SEN2cFp0Q3JxM0oxV2oraHM5YlFLRXdqOUZIeUhWUEFMRDYzcnhzZlpGUFcyczNlZzNpdjVrOXZndko4cFJnK3BTV1oydnVPTnpUM0J3TFFFRjhINmoxN21uSU15WGhRSjlHU2pzYTVVMmhVaVhrK3BpQzlvUURHMEFST2N5L3ZnZFovdU5oMzVYU3RkLzcyL25GOXBZKzNIQmlWUFBXK1ZHSVhwQW9PN1UxbFZReXpxNVBRU0YrRkQwYzljS2hQbXlVS0F2Q3dWK2pVL2YvK1R1RzY0NFc3MHBlTC80c211Uzd5Sm9FNGkwS2Z6RjZjOE5PcThnNnJGMlkxc2JCM0wwRzBYL25kaUxmWk5kaVI0ZDhKcS8rc1R1ZTIvKzh0SXVtVDJTSU1pWGljSjhXU2p3YTF6NzhhL3V2dUxQYjhPNkdrcWJoUDdtZjl0bnYxVzFNZWlSSEs5NjgrMkQzeW5JeHRiMmRudTMwTWFoR09lL2YyTG5uY3Y0TnJzU2JSYjZHT3BOMi9mdWZ1aU94NVoyMS9haEF3RytDaFRteTBTaG4zUC9WLzlsOSsxbjd0dDl6cXV1eGZwWkJtMFVXeGZmMkc4Vyt0SWRvNCtoL3BmWDVyL29QMGZuRnRyZHptMGMybkg4NUh0K3BudEwvUEwrNDZjVnY2c3diY09ZZ1BCZUZRcnlaYUxnejduNTdEZDIvOE5iN3h6MTBkRis2NjlFMnRwNWUvczZ6emFPMURoKzR0U3pKby94dUc2VjV5cWlRNzloUUdDdkdvWDRLbEQ0azA5OC9qdTdiL3o3ZTVieExrRmZ6WHRaVjZQL1QvanpsZXMvUWpxeC9ZeEp1N1RSeHRFZCtnanEyT2IyNnpzMzYyOU0xRENyY3FBM0RBanJ2VUlCdmdxMEFVUzY0dWlLRDk1Zi9meWhnclAraTNIMG1KbXVMajhGLzcvbDYrcS9QZjZpalRZeVE5OUpjV3h6NTlLdVlmUzNOMjZrRmJJTlF6ZnA2YnNzdEdsZ09POFZDT2Y5UU9HOUtyUUplTGZkOCszZHQ1dysxOTk1VDJzNHdzeW1FTWZHK2Z0OGZnai8zaktjYmVjVjJtaGp4Tmc0dWIzWk5lYmJsdjAwMmFGMGxZbnU3TGFOUTVmV2F1TlkrUEphQ09KMVF1RzlLclFSbU8yUFBMejdtcmZldWZ1cnIvZ0FyczlRNXovWDN6Nmp2NHhNU2kwN25uNnE4YzduNHM4YVovdTY5dldkYmJTeHBLRXZNZXIvRnJlNWMycS9ONHRJZjR1MXg0TDg1VlhuZHErOS9iSGQyKzk5QWdOMzNWRndyNXJmQ1BSUmtUWUQzWXV3cEkrTHB2cUxJcnAzcHJwUVlsSldnOGY1ajV1NmQ3ZWJPN2ZYZmhUYVAxMmcrLzkzZGZ2YVJYNTNHMjIwVVRuNmo2SDByWGRydUdFWWZWU2xqZVBpeSsvcU53OXRIUEtSVHo2TzRid2ZLTEQzZ2pZRDNYK2c4d1o2WjdDeVMwNFY1SnM3TDUrVXpWS0hhbEQzK2ZUbnp2b1QyZWZwTHpMNmMyMG1rLzlyRzIyMHNaL2pJR3dZeE41OWlJSlNHNG5vVVNLcjJGQW9yRmZsN2dlZjdGKy83am13ZHdUTCtvZ29wZnRiL1dQOXU0UVRwNTQxS1kwMjJtaWpqZGt4czJIc3djMTVlOFUyRS8vT0pFWEJiSnZNRUttZzk5NXovVVA5YzRwRUc1dkNYOGJjRWJ5SWJuMmY2djdHL2s1ZEJUZForamJhYUtPTlljTStDdENKeWNPMFlSdzE1emVFN1RPNmVHR3l0RzIwMFVZYnl4MzlodEc5dytoQzU3THpKeEQzNTVMYXB1RDhabjVaZTRmUVJodHQ3T3ZRbFZMOXhuSCtjc1p1NDlpK3VmdlBzN1ZYcXpTTE9YKzFqK2E4WGUzVFJodHRISkNoYStDMWNlaHFtQzdJOU5pRjY3ci9QTHVLTDBjNk1ycDNCdjM1b1c0emJsZjd0TkZHRzRkeTlCdkgxczZMdTlDN3JEKy9jZjZqcXM3QnVaSnF0VFFQL1laNm1lWkttKzFrNnRwb280MDIyckRyNWZ1UHIreThoemFVL3BKYzIxQU81amtRblRUdS9sTWJZcjhKNk9SeGUwZlFSaHR0dExHaW9ST3kwdzNGem9kVW1IMEhzNWpKejNyNloyL3V2TnhlMCtSbHR0RkdHMjIwMFVZYmJiVFJSaHR0dE5GR0cyMjAwVVliYmJUUlJodHR0TkdHR3oveEUvOS80SGlEUTVDL3ViQUFBQUFBU1VWT1JLNUNZSUlBQUE9PSIgaGVpZ2h0PSI0OTYiIHdpZHRoPSIzOTEiIGlkPSJtZmlkMTgiLz4mI3hhOwkJCQkJCTwvZGVmcz4mI3hhOwkJCQkJCSYjeGE7CQkJCQkJPGcgbWFzaz0idXJsKCNtZmlkMTcpIj4mI3hhOwkJCQkJCQk8ZyB0cmFuc2Zvcm09Im1hdHJpeCgxLCAwLCAwLCAxLCAwLCAwKSI+JiN4YTsJCQkJCQkJCTxjbGlwUGF0aCBpZD0ibWZpZDE5Ij4mI3hhOwkJCQkJCQkJCTxyZWN0IGhlaWdodD0iNDk2IiB3aWR0aD0iMzkxIiB5PSItMC41IiB4PSItMC41Ii8+JiN4YTsJCQkJCQkJCTwvY2xpcFBhdGg+JiN4YTsJCQkJCQkJCTx1c2UgdHJhbnNmb3JtPSJtYXRyaXgoMSwgMCwgMCwgMSwgMC41LCAwLjUpIiBjbGlwLXBhdGg9InVybCgjbWZpZDE5KSIgeGxpbms6aHJlZj0iI21maWQxOCIvPiYjeGE7CQkJCQkJCTwvZz4mI3hhOwkJCQkJCTwvZz4mI3hhOwkJCQkJCTxtYXNrIGlkPSJtZmlkMjAiPiYjeGE7CQkJCQkJCTxyZWN0IHN0cm9rZT0ibm9uZSIgZmlsbD0id2hpdGUiIGhlaWdodD0iNDk2IiB3aWR0aD0iMzkxIi8+JiN4YTsJCQkJCQk8L21hc2s+JiN4YTsJCQkJCTwvZz4mI3hhOwkJCQk8L3N2Zz4mI3hhOwkJCSYjeGE7CQkJPC9mb3JlaWduT2JqZWN0Pjwvc3dpdGNoPjwvZz48L2c+PC9zdmc+;" vertex="1" parent="1">
          <mxGeometry x="530" y="570" width="120" height="120" as="geometry" />
        </mxCell>
      </root>
    </mxGraphModel>
  </diagram>
</mxfile>
